/* XPM */
static char * close_pressed_xpm[] = {
"20 20 37 1",
" 	c None",
".	c #939393",
"+	c #FFFFFF",
"@	c #E3E3E3",
"#	c #E2E2E2",
"$	c #E1E1E1",
"%	c #CCCCCC",
"&	c #C8C8C8",
"*	c #E0E0E0",
"=	c #CECECE",
"-	c #C5C5C5",
";	c #DFDFDF",
">	c #D8D8D8",
",	c #D1D1D1",
"'	c #D0D0D0",
")	c #DEDEDE",
"!	c #DDDDDD",
"~	c #C4C4C4",
"{	c #DCDCDC",
"]	c #B1B1B1",
"^	c #DBDBDB",
"/	c #ABABAB",
"(	c #DADADA",
"_	c #D9D9D9",
":	c #C1C1C1",
"<	c #D7D7D7",
"[	c #C2C2C2",
"}	c #D6D6D6",
"|	c #BEBEBE",
"1	c #D5D5D5",
"2	c #C3C3C3",
"3	c #D4D4D4",
"4	c #D2D2D2",
"5	c #C7C7C7",
"6	c #B2B2B2",
"7	c #B0B0B0",
"8	c #D3D3D3",
"....................",
"++++++++++++++++++++",
"@@@@@@@@@@@@@@@@@@@@",
"####################",
"$$$$$$$%&&&%$$$$$$$$",
"*****=-;>>>;-=******",
";;;;&,>>>>>>>,';;;;;",
")))!~>>>>>>>>>~!))))",
"!!!,*>>>>>>>>>*,!!!!",
"{{{]>>>>>>>>>>>]{{{{",
"^^^/>>>>>>>>>>>/^^^^",
"(((/>>>>>>>>>>>/((((",
"___:;^!!!!!!!^;:____",
">>><-^;;;;;;;^[<>>>>",
"<<<}['*******'|}<<<<",
"}}}}1|2}*$*}2|1}}}}}",
"11111345676543111111",
"33333338444833333333",
"88888888888888888888",
"44444444444444444444"};
