/* XPM */
static char * close_xpm[] = {
"20 20 55 1",
" 	c None",
".	c #939393",
"+	c #FFFFFF",
"@	c #E3E3E3",
"#	c #E2E2E2",
"$	c #E1E1E1",
"%	c #CCCCCC",
"&	c #C8C8C8",
"*	c #E0E0E0",
"=	c #CECECE",
"-	c #C5C5C5",
";	c #FCFCFC",
">	c #DFDFDF",
",	c #D1D1D1",
"'	c #F9F9F9",
")	c #F8F8F8",
"!	c #F7F7F7",
"~	c #D0D0D0",
"{	c #DEDEDE",
"]	c #DDDDDD",
"^	c #C4C4C4",
"/	c #F5F5F5",
"(	c #F3F3F3",
"_	c #F2F2F2",
":	c #FAFAFA",
"<	c #F0F0F0",
"[	c #DCDCDC",
"}	c #B1B1B1",
"|	c #EEEEEE",
"1	c #EDEDED",
"2	c #DBDBDB",
"3	c #ABABAB",
"4	c #F6F6F6",
"5	c #EAEAEA",
"6	c #EBEBEB",
"7	c #DADADA",
"8	c #E8E8E8",
"9	c #E9E9E9",
"0	c #D9D9D9",
"a	c #C1C1C1",
"b	c #E6E6E6",
"c	c #E5E5E5",
"d	c #D8D8D8",
"e	c #D7D7D7",
"f	c #C2C2C2",
"g	c #D6D6D6",
"h	c #BEBEBE",
"i	c #D5D5D5",
"j	c #C3C3C3",
"k	c #D4D4D4",
"l	c #D2D2D2",
"m	c #C7C7C7",
"n	c #B2B2B2",
"o	c #B0B0B0",
"p	c #D3D3D3",
"....................",
"++++++++++++++++++++",
"@@@@@@@@@@@@@@@@@@@@",
"####################",
"$$$$$$$%&&&%$$$$$$$$",
"*****=-@;+;@-=******",
">>>>&,;')!)';,~>>>>>",
"{{{]^'/(___(/:^]{{{{",
"]]],$/<<<<<<</$,]]]]",
"[[[}/|1111111|/}[[[[",
"22234566666665432222",
"7773(899999998(37777",
"000a>bcccccccb>a0000",
"ddde-b@@@@@@@bfedddd",
"eeegf~#$***$$~hgeeee",
"ggggihjg*$*gjhiggggg",
"iiiiiklmnonmlkiiiiii",
"kkkkkkkplllpkkkkkkkk",
"pppppppppppppppppppp",
"llllllllllllllllllll"};
