/* XPM */
static char * min_xpm[] = {
"20 20 51 1",
" 	c None",
".	c #939393",
"+	c #FFFFFF",
"@	c #E3E3E3",
"#	c #E2E2E2",
"$	c #E1E1E1",
"%	c #E0E0E0",
"&	c #D4D4D4",
"*	c #C8C8C8",
"=	c #DFDFDF",
"-	c #D6D6D6",
";	c #CACACA",
">	c #FAFAFA",
",	c #DEDEDE",
"'	c #D9D9D9",
")	c #CECECE",
"!	c #F1F1F1",
"~	c #F9F9F9",
"{	c #F5F5F5",
"]	c #F4F4F4",
"^	c #DDDDDD",
"/	c #DCDCDC",
"(	c #D5D5D5",
"_	c #F7F7F7",
":	c #F0F0F0",
"<	c #DADADA",
"[	c #C0C0C0",
"}	c #EEEEEE",
"|	c #ECECEC",
"1	c #EDEDED",
"2	c #DBDBDB",
"3	c #D8D8D8",
"4	c #B8B8B8",
"5	c #F6F6F6",
"6	c #EAEAEA",
"7	c #EBEBEB",
"8	c #D7D7D7",
"9	c #B7B7B7",
"0	c #E7E7E7",
"a	c #E9E9E9",
"b	c #C7C7C7",
"c	c #E4E4E4",
"d	c #C9C9C9",
"e	c #D3D3D3",
"f	c #C5C5C5",
"g	c #CBCBCB",
"h	c #C6C6C6",
"i	c #C2C2C2",
"j	c #CDCDCD",
"k	c #CCCCCC",
"l	c #D2D2D2",
"....................",
"++++++++++++++++++++",
"@@@@@@@@@@@@@@@@@@@@",
"####################",
"$$$$$$$$$$$$$$$$$$$$",
"%%%%%%%&***&%%%%%%%%",
"=====-;=>+>=;-======",
",,,,')!~{]{~!)',,,,,",
"^^^/(%_!:::!_%(/^^^^",
"///<[]}|111|}][<////",
"22234567777765432222",
"<<<89]0aaaaa0]98<<<<",
"'''3b%cc@c@cc%b3''''",
"3333&;c#####cde33333",
"8888&fg'$@$'gh&88888",
"-----eggi[igge------",
"(((((((ejkje((((((((",
"&&&&&&&&&&&&&&&&&&&&",
"eeeeeeeeeeeeeeeeeeee",
"llllllllllllllllllll"};
