/* XPM */
static char * min_pressed_xpm[] = {
"20 20 35 1",
" 	c None",
".	c #939393",
"+	c #FFFFFF",
"@	c #E3E3E3",
"#	c #E2E2E2",
"$	c #E1E1E1",
"%	c #E0E0E0",
"&	c #D4D4D4",
"*	c #C8C8C8",
"=	c #DFDFDF",
"-	c #D6D6D6",
";	c #CACACA",
">	c #D8D8D8",
",	c #DEDEDE",
"'	c #D9D9D9",
")	c #CECECE",
"!	c #DDDDDD",
"~	c #DCDCDC",
"{	c #D5D5D5",
"]	c #DADADA",
"^	c #C0C0C0",
"/	c #DBDBDB",
"(	c #B8B8B8",
"_	c #D7D7D7",
":	c #B7B7B7",
"<	c #C7C7C7",
"[	c #C9C9C9",
"}	c #D3D3D3",
"|	c #C5C5C5",
"1	c #CBCBCB",
"2	c #C6C6C6",
"3	c #C2C2C2",
"4	c #CDCDCD",
"5	c #CCCCCC",
"6	c #D2D2D2",
"....................",
"++++++++++++++++++++",
"@@@@@@@@@@@@@@@@@@@@",
"####################",
"$$$$$$$$$$$$$$$$$$$$",
"%%%%%%%&***&%%%%%%%%",
"=====-;=>>>=;-======",
",,,,')>>>>>>>)',,,,,",
"!!!~{%>>>>>>>%{~!!!!",
"~~~]^>>>>>>>>>^]~~~~",
"///>(>]>>>>>]>(>////",
"]]]_:>%~~~~~%>:_]]]]",
"'''><%@@@@@@@%<>''''",
">>>>&;@#####@[}>>>>>",
"____&|1'$@$'12&_____",
"-----}113^311}------",
"{{{{{{{}454}{{{{{{{{",
"&&&&&&&&&&&&&&&&&&&&",
"}}}}}}}}}}}}}}}}}}}}",
"66666666666666666666"};
