/* XPM */
static char * bar_xpm[] = {
"20 21 25 1",
" 	c None",
".	c #618292",
"+	c #608191",
"@	c #608090",
"#	c #5E7D8D",
"$	c #5C7B8B",
"%	c #5C7A8A",
"&	c #5A7887",
"*	c #597786",
"=	c #577482",
"-	c #567381",
";	c #536E7C",
">	c #4F6976",
",	c #4E6875",
"'	c #4A636F",
")	c #49626E",
"!	c #455C68",
"~	c #445B67",
"{	c #415762",
"]	c #405661",
"^	c #3E535D",
"/	c #3C515B",
"(	c #3C505A",
"_	c #3B4E58",
":	c #3A4D57",
".....+++++++......++",
"@@@@@@@@@@@@@@@@@@@@",
"####################",
"$$$$$$%%%%%%%%%%%%%%",
"&&&&&&&&***&&&&&&&&&",
"======---------==---",
";;;;;;;;;;;;;;;;;;;;",
">>>>>>>,,,,,,>>>>,,,",
"''''')))))))))))))))",
"!!!!!!!~~~~!!!!!!~~~",
"{{{{{{{]]]]]{{{{{]]]",
"^^^^^^^^^^^^^^^^^^^^",
"////////((((////////",
"____________________",
"::___:::::::::::::::",
"::::::::::::::::::::",
"::::::::::::::::::::",
"::::::::::::::::::::",
"::::::::::::::::::::",
"::::::::::::::::::::",
"::::::::::::::::::::"};
