/* XPM */
static char * bar_unf_xpm[] = {
"20 21 27 1",
" 	c None",
".	c #628393",
"+	c #638494",
"@	c #618292",
"#	c #608090",
"$	c #608191",
"%	c #5E7D8D",
"&	c #5D7C8C",
"*	c #5C7A8A",
"=	c #5A7887",
"-	c #597786",
";	c #587685",
">	c #577482",
",	c #587584",
"'	c #567381",
")	c #54717F",
"!	c #526D7B",
"~	c #536E7C",
"{	c #516C7A",
"]	c #506A78",
"^	c #506B79",
"/	c #4F6976",
"(	c #4D6774",
"_	c #4E6875",
":	c #4C6673",
"<	c #4C6572",
"[	c #4B6470",
"........+++++.......",
"@@@@@@@@@@@@@@@@@@@@",
"#########$$$########",
"%%%%%%%%%%%%%%%%%%&&",
"********************",
"=--=---=======----;;",
">>>>>>>>>,,,,>>>>>''",
"))))))))))))))))))))",
"!!!!!!!!~~~~~!!!!!!{",
"]]]]]]]]^^^^^]]]////",
"((((((((_____(((((((",
":::::::::((((:::::::",
"<<<<<<<::::::<<<<<<<",
"<<<<<<<<<<<<<<<<<<<[",
"[[[[[[[[[[[[[[[[[[[[",
"[[[[[[[[[[[[[[[[[[[[",
"[[[[[[[[[[[[[[[[[[[[",
"[[[[[[[[[[[[[[[[[[[[",
"[[[[[[[[[[[[[[[[[[[[",
"[[[[[[[[[[[[[[[[[[[[",
"[[[[[[[[[[[[[[[[[[[["};
