/* XPM */
static char * bullet_xpm[] = {
"19 19 3 1",
" 	c None",
".	c #4A636F",
"+	c #3C515B",
"                   ",
"                   ",
"                   ",
"                   ",
"                   ",
"                   ",
"           .       ",
"           .+      ",
"            .+     ",
"             .+    ",
"            .+     ",
"           .+      ",
"           .       ",
"                   ",
"                   ",
"                   ",
"                   ",
"                   ",
"                   "};
