/* XPM */
static char * bullet_hilite_xpm[] = {
"19 19 3 1",
" 	c None",
".	c #425863",
"+	c #374952",
"                   ",
"                   ",
"                   ",
"                   ",
"                   ",
"                   ",
"            .      ",
"            .+     ",
"             .+    ",
"              .+   ",
"             .+    ",
"            .+     ",
"            .      ",
"                   ",
"                   ",
"                   ",
"                   ",
"                   ",
"                   "};
