/* XPM */
static char * close_pressed_xpm[] = {
"21 21 59 1",
" 	c None",
".	c #32434B",
"+	c #31424A",
"@	c #304149",
"#	c #BB715D",
"$	c #FFF5EC",
"%	c #FFFFFA",
"&	c #FFFBF2",
"*	c #FFFDF5",
"=	c #FFFFF8",
"-	c #FFFCF5",
";	c #FFFAF2",
">	c #FFFFF7",
",	c #FFFDF6",
"'	c #FFF3EA",
")	c #FFEFE4",
"!	c #FFEBE0",
"~	c #FFEDE4",
"{	c #FFF1E7",
"]	c #FFF2E8",
"^	c #FFEDE2",
"/	c #FFECE1",
"(	c #FFEADF",
"_	c #FFEFE5",
":	c #304048",
"<	c #FFDCCF",
"[	c #FFE1D4",
"}	c #D49483",
"|	c #FFE0D4",
"1	c #FFDACC",
"2	c #FFDACB",
"3	c #FFDDCF",
"4	c #2F3E46",
"5	c #FFC5B1",
"6	c #FFCBB9",
"7	c #FFFFFF",
"8	c #FFC4B1",
"9	c #FFC1AF",
"0	c #FFC6B4",
"a	c #2E3D45",
"b	c #FFA990",
"c	c #FFB19A",
"d	c #FFA48A",
"e	c #FFA58D",
"f	c #FFAB94",
"g	c #FFA890",
"h	c #2D3C44",
"i	c #2C3B43",
"j	c #FD8A6C",
"k	c #FF9274",
"l	c #FC8464",
"m	c #FF8C6D",
"n	c #FD8869",
"o	c #FD8567",
"p	c #FF8D6E",
"q	c #2C3A42",
"r	c #FA7754",
"s	c #2B3940",
"t	c #2A383F",
".....................",
"+++..................",
"@###################@",
"@#$%&***=%*-;%>-&,'#@",
"@#)'!)~~{]^/(]_^/)^#@",
":#<[}###}|12}###}31#:",
"4#56#777#689#777#08#4",
"a#bcd#777#b#777#efg#h",
"i#jklm#777#777#nopn#i",
"q#rrrrr#77777#rrrrr#q",
"s#rrrrr}#777#}rrrrr#s",
"s#rrrr}#77777#}rrrr#s",
"s#rrr}#777#777#}rrr#s",
"t#rr}#777#r#777#}rr#t",
"t#rr#777#rrr#777#rr#t",
"t#pp}###}ppp}###}pp#t",
"t#ppppppppppppppppp#t",
"t###################t",
"ttttttttttttttttttttt",
"ttttttttttttttttttttt",
"ttttttttttttttttttttt"};
