/* XPM */
static char * close_unfocus_xpm[] = {
"21 21 57 1",
" 	c None",
".	c #32434B",
"+	c #31424A",
"@	c #304149",
"#	c #A06E61",
"$	c #DEC6C1",
"%	c #E0CFCA",
"&	c #DFCAC5",
"*	c #DFCCC6",
"=	c #E0CEC9",
"-	c #DFCBC6",
";	c #E0CECA",
">	c #DFCDC8",
",	c #DFCCC7",
"'	c #DDC6BF",
")	c #DDC2BB",
"!	c #DDC0B8",
"~	c #DDC1BB",
"{	c #DDC4BD",
"]	c #DDC5BE",
"^	c #DDC1BA",
"/	c #DDC1B9",
"(	c #DCBFB8",
"_	c #DDC2BC",
":	c #304048",
"<	c #DAB6AD",
"[	c #DBB9B0",
"}	c #B0867A",
"|	c #DAB8B0",
"1	c #D9B4AB",
"2	c #DAB7AD",
"3	c #2F3E46",
"4	c #D6A699",
"5	c #D7AB9E",
"6	c #E6E6E6",
"7	c #D5A498",
"8	c #D6A79B",
"9	c #2E3D45",
"0	c #D29483",
"a	c #D3998A",
"b	c #D0907F",
"c	c #D19181",
"d	c #D29586",
"e	c #D19383",
"f	c #2D3C44",
"g	c #2C3B43",
"h	c #CC7F6B",
"i	c #CE8470",
"j	c #CB7B66",
"k	c #CD806B",
"l	c #CC7D69",
"m	c #CC7C67",
"n	c #CD816C",
"o	c #2C3A42",
"p	c #CA725B",
"q	c #2B3940",
"r	c #2A383F",
".....................",
"+++..................",
"@###################@",
"@#$%&***=%*-&;>-&,'#@",
"@#)'!)~~{]^/(]_^/)^#@",
":#<[}###}|11}###}21#:",
"3#45#666#547#666#84#3",
"9#0ab#666#0#666#cde#f",
"g#hijk#666#666#lmnl#g",
"o#ppppp#66666#ppppp#o",
"q#ppppp}#666#}ppppp#q",
"q#pppp}#66666#}pppp#q",
"q#ppp}#666#666#}ppp#q",
"r#pp}#666#p#666#}pp#r",
"r#pp#666#ppp#666#pp#r",
"r#nn}###}nnn}###}nn#r",
"r#nnnnnnnnnnnnnnnnn#r",
"r###################r",
"rrrrrrrrrrrrrrrrrrrrr",
"rrrrrrrrrrrrrrrrrrrrr",
"rrrrrrrrrrrrrrrrrrrrr"};
