/* XPM */
static char * close_xpm[] = {
"21 21 57 1",
" 	c None",
".	c #32434B",
"+	c #31424A",
"@	c #304149",
"#	c #89584B",
"$	c #C6AEA9",
"%	c #C7B6B1",
"&	c #C6B2AD",
"*	c #C6B4AE",
"=	c #C6B3AE",
"-	c #C6B1AD",
";	c #C6B5B0",
">	c #C6B4AF",
",	c #C5ADA7",
"'	c #C4AAA3",
")	c #C4A8A1",
"!	c #C4A9A3",
"~	c #C5ACA5",
"{	c #C5ADA6",
"]	c #C4A9A2",
"^	c #C4A9A1",
"/	c #C3A7A0",
"(	c #C4AAA4",
"_	c #304048",
":	c #C29E95",
"<	c #C2A199",
"[	c #996F64",
"}	c #C19D94",
"|	c #C19D93",
"1	c #C29F95",
"2	c #2F3E46",
"3	c #BE8F82",
"4	c #BE9387",
"5	c #CDCDCD",
"6	c #BE8E82",
"7	c #BD8D81",
"8	c #BE9084",
"9	c #2E3D45",
"0	c #BA7C6C",
"a	c #BA8273",
"b	c #B87968",
"c	c #B97A6A",
"d	c #BA7E6F",
"e	c #B97C6C",
"f	c #2D3C44",
"g	c #2C3B43",
"h	c #B46854",
"i	c #B66D5A",
"j	c #B36450",
"k	c #B56955",
"l	c #B46753",
"m	c #B46551",
"n	c #B56A56",
"o	c #2C3A42",
"p	c #B15C45",
"q	c #2B3940",
"r	c #2A383F",
".....................",
"+++..................",
"@###################@",
"@#$%&***%%*=-%;=&>,#@",
"@#',)'!!~{]^/{(]^']#@",
"_#:<[###[<}|[###[1}#_",
"2#34#555#467#555#86#2",
"9#0ab#555#0#555#cde#f",
"g#hijk#555#555#lmnl#g",
"o#ppppp#55555#ppppp#o",
"q#ppppp[#555#[ppppp#q",
"q#pppp[#55555#[pppp#q",
"q#ppp[#555#555#[ppp#q",
"r#pp[#555#p#555#[pp#r",
"r#pp#555#ppp#555#pp#r",
"r#nn[###[nnn[###[nn#r",
"r#nnnnnnnnnnnnnnnnn#r",
"r###################r",
"rrrrrrrrrrrrrrrrrrrrr",
"rrrrrrrrrrrrrrrrrrrrr",
"rrrrrrrrrrrrrrrrrrrrr"};
