/* XPM */
static char * max_xpm[] = {
"21 21 34 1",
" 	c None",
".	c #32434B",
"+	c #31424A",
"@	c #304149",
"#	c #4EB3B3",
"$	c #C9E8E8",
"%	c #C4E5E5",
"&	c #C8E7E7",
"*	c #C1E4E4",
"=	c #C2E5E5",
"-	c #BFE4E4",
";	c #304048",
">	c #B7E0E0",
",	c #BAE1E1",
"'	c #7CC7C7",
")	c #2F3E46",
"!	c #A9DADA",
"~	c #B0DDDD",
"{	c #CFEAEA",
"]	c #AFDCDC",
"^	c #2E3D45",
"/	c #9BD4D4",
"(	c #A1D6D6",
"_	c #9CD5D5",
":	c #2D3C44",
"<	c #2C3B43",
"[	c #8DCECE",
"}	c #93D0D0",
"|	c #90CFCF",
"1	c #2C3A42",
"2	c #83CACA",
"3	c #2B3940",
"4	c #2A383F",
"5	c #6DC0C0",
".....................",
"+++..................",
"@###################@",
"@#$%$$$$$$&$&$$&$$$#@",
"@#*==*==%%-**=%*===#@",
";#>,'###########'>,#;",
")#!~#{{{{{{{{{{{#!]#)",
"^#/(#{{{{{{{{{{{#_(#:",
"<#[}#{{#######{{#[|#<",
"1#22#{{#}}}}}#{{#22#1",
"3#22#{{#22222#{{#22#3",
"3#22#{{#22222#{{#22#3",
"3#22#{{#######{{#22#3",
"4#22#{{{{{{{{{{{#22#4",
"4#22#{{{{{{{{{{{#22#4",
"4#225###########522#4",
"4#[[[[[[[[[[[[[[[[[#4",
"4###################4",
"444444444444444444444",
"444444444444444444444",
"444444444444444444444"};
