/* XPM */
static char * max_pressed_xpm[] = {
"21 21 33 1",
" 	c None",
".	c #32434B",
"+	c #31424A",
"@	c #304149",
"#	c #60B9B9",
"$	c #F9FCFC",
"%	c #F8FBFB",
"&	c #F6FBFB",
"*	c #F5FAFA",
"=	c #304048",
"-	c #F1F8F8",
";	c #F2F9F9",
">	c #A2D5D5",
",	c #2F3E46",
"'	c #E4F3F3",
")	c #EBF6F6",
"!	c #FAFDFD",
"~	c #E6F3F3",
"{	c #E8F5F5",
"]	c #2E3D45",
"^	c #D1EAEA",
"/	c #D6EDED",
"(	c #2D3C44",
"_	c #2C3B43",
":	c #B8DFDF",
"<	c #C1E4E4",
"[	c #BBE0E0",
"}	c #BFE2E2",
"|	c #2C3A42",
"1	c #AAD9D9",
"2	c #2B3940",
"3	c #2A383F",
"4	c #8BCCCC",
".....................",
"+++..................",
"@###################@",
"@#$%$$$$$$$$$$$$$$$#@",
"@#&%%&%%%%*&&%%&%%%#@",
"=#-;>###########>-;#=",
",#')#!!!!!!!!!!!#~{#,",
"]#^/#!!!!!!!!!!!#^/#(",
"_#:<#!!#######!!#[}#_",
"|#11#!!#<<<<<#!!#11#|",
"2#11#!!#11111#!!#11#2",
"2#11#!!#11111#!!#11#2",
"2#11#!!#######!!#11#2",
"3#11#!!!!!!!!!!!#11#3",
"3#11#!!!!!!!!!!!#11#3",
"3#114###########411#3",
"3#:[:::::::::::::::#3",
"3###################3",
"333333333333333333333",
"333333333333333333333",
"333333333333333333333"};
