/* XPM */
static char * max_unfocus_xpm[] = {
"21 21 33 1",
" 	c None",
".	c #32434B",
"+	c #31424A",
"@	c #304149",
"#	c #409595",
"$	c #A2D7D7",
"%	c #9FD6D6",
"&	c #A5D8D8",
"*	c #9BD4D4",
"=	c #9CD5D5",
"-	c #304048",
";	c #93D0D0",
">	c #96D2D2",
",	c #5BB8B8",
"'	c #2F3E46",
")	c #86CBCB",
"!	c #8CCDCD",
"~	c #ABDADA",
"{	c #8ACDCD",
"]	c #2E3D45",
"^	c #7AC5C5",
"/	c #7CC7C7",
"(	c #2D3C44",
"_	c #2C3B43",
":	c #69BEBE",
"<	c #70C1C1",
"[	c #6CC0C0",
"}	c #6EC1C1",
"|	c #2C3A42",
"1	c #62BBBB",
"2	c #2B3940",
"3	c #2A383F",
"4	c #4CB1B1",
".....................",
"+++..................",
"@###################@",
"@#$%$$$$&&$$$$&$&$&#@",
"@#*=****%%****%*=*=#@",
"-#;>,###########,;>#-",
"'#)!#~~~~~~~~~~~#){#'",
"]#^/#~~~~~~~~~~~#^/#(",
"_#:<#~~#######~~#[}#_",
"|#11#~~#<<<<<#~~#11#|",
"2#11#~~#11111#~~#11#2",
"2#11#~~#11111#~~#11#2",
"2#11#~~#######~~#11#2",
"3#11#~~~~~~~~~~~#11#3",
"3#11#~~~~~~~~~~~#11#3",
"3#114###########411#3",
"3#:[:::::::::::::::#3",
"3###################3",
"333333333333333333333",
"333333333333333333333",
"333333333333333333333"};
