/* XPM */
static char * min_unfocus_xpm[] = {
"21 21 124 2",
"  	c None",
". 	c #32434B",
"+ 	c #31424A",
"@ 	c #304149",
"# 	c #C07831",
"$ 	c #BD6D1D",
"% 	c #BD6C1C",
"& 	c #BF7326",
"* 	c #BE7021",
"= 	c #E1CBB5",
"- 	c #E5D5C5",
"; 	c #E5D3C1",
"> 	c #E5D4C3",
", 	c #E5D4C4",
"' 	c #E5D3C2",
") 	c #E5D2C1",
"! 	c #E5D1C0",
"~ 	c #E5D2C2",
"{ 	c #E5D3C3",
"] 	c #E1C9B3",
"^ 	c #BE7022",
"/ 	c #E1C4A7",
"( 	c #E5CDB7",
"_ 	c #E3CBB3",
": 	c #E4CCB5",
"< 	c #E3CBB2",
"[ 	c #E3CAB1",
"} 	c #E3C9B0",
"| 	c #E4CAB2",
"1 	c #E4CBB3",
"2 	c #E0C2A4",
"3 	c #304048",
"4 	c #DFBA95",
"5 	c #E2C3A4",
"6 	c #E2C1A1",
"7 	c #E2C2A3",
"8 	c #E2C1A2",
"9 	c #E1C09E",
"0 	c #E1BD9B",
"a 	c #E2BF9F",
"b 	c #E2C09F",
"c 	c #E2C1A0",
"d 	c #E2C19F",
"e 	c #E1BF9D",
"f 	c #DFB994",
"g 	c #2F3E46",
"h 	c #DDAE80",
"i 	c #E1B78D",
"j 	c #E1B58B",
"k 	c #E1B68D",
"l 	c #E1B68C",
"m 	c #E0B388",
"n 	c #E0B287",
"o 	c #E0B183",
"p 	c #E0B487",
"q 	c #E1B388",
"r 	c #E0B185",
"s 	c #E0B387",
"t 	c #E0B186",
"u 	c #DDAC7D",
"v 	c #2E3D45",
"w 	c #BD7023",
"x 	c #DBA066",
"y 	c #DEA873",
"z 	c #DEA56E",
"A 	c #DEA771",
"B 	c #DEA46D",
"C 	c #DDA36A",
"D 	c #DDA168",
"E 	c #DEA46C",
"F 	c #DEA772",
"G 	c #DDA26A",
"H 	c #DEA36A",
"I 	c #DB9E64",
"J 	c #2D3C44",
"K 	c #2C3B43",
"L 	c #BD7124",
"M 	c #D98F49",
"N 	c #DC9652",
"O 	c #DC934E",
"P 	c #DC9551",
"Q 	c #DB934D",
"R 	c #DB924A",
"S 	c #DB9048",
"T 	c #DC934C",
"U 	c #DC9753",
"V 	c #DC934D",
"W 	c #DB9149",
"X 	c #DC924E",
"Y 	c #DC924C",
"Z 	c #DB9148",
"` 	c #DB924B",
" .	c #D88E46",
"..	c #2C3A42",
"+.	c #D88435",
"@.	c #DA8738",
"#.	c #2B3940",
"$.	c #DB8736",
"%.	c #CB925A",
"&.	c #BF752C",
"*.	c #BD6C1B",
"=.	c #BD6C1A",
"-.	c #BF772F",
";.	c #CC9159",
">.	c #DB8636",
",.	c #DC893A",
"'.	c #BF6A16",
").	c #DCC0A6",
"!.	c #E7DCD2",
"~.	c #E6D8CC",
"{.	c #E8DCD3",
"].	c #DABA9C",
"^.	c #C06B16",
"/.	c #2A383F",
"(.	c #BD7024",
"_.	c #D9914C",
":.	c #DE9651",
"<.	c #CB945E",
"[.	c #BF752B",
"}.	c #BF772E",
"|.	c #CC945E",
"1.	c #DD9550",
"2.	c #DC9552",
"3.	c #BE7225",
". . . . . . . . . . . . . . . . . . . . . ",
"+ + + . . . . . . . . . . . . . . . . . . ",
"@ # $ $ $ $ $ $ $ $ $ $ $ $ $ $ $ $ % & @ ",
"@ * = - ; > , ' ) ! ~ > ' ) ) ; ) { ] * @ ",
"@ ^ / ( _ : : < [ } | : 1 [ < _ [ _ 2 ^ @ ",
"3 ^ 4 5 6 7 8 6 9 0 a 7 b 9 c d e b f ^ 3 ",
"g ^ h i j k l m n o p k q r s s t n u ^ g ",
"v w x y z A A B C D E F B G B E C H I w J ",
"K L M N O P N Q R S T U V W X Y Z `  .L K ",
"..L +.@.@.@.@.@.@.@.@.@.@.@.@.@.@.@.+.L ..",
"#.L +.@.@.@.@.@.@.@.@.@.@.@.@.@.@.@.+.L #.",
"#.L +.$.%.&.*.$ $ $ $ $ $ =.-.;.>.@.+.L #.",
"#.L +.,.'.).!.~.~.~.~.~.~.{.].^.,.@.+.L #.",
"/.L +.,.'.).!.~.~.~.~.~.~.{.].^.,.@.+.L /.",
"/.L +.,.'.).!.~.~.~.~.~.~.{.].^.,.@.+.L /.",
"/.(._.:.<.[.*.$ $ $ $ $ $ =.}.|.1.2._.(./.",
"/.(._.2.P P P P P P P P P P P P P 2._.(./.",
"/.3.% $ $ $ $ $ $ $ $ $ $ $ $ $ $ $ % 3./.",
"/././././././././././././././././././././.",
"/././././././././././././././././././././.",
"/././././././././././././././././././././."};
