/* XPM */
static char * min_xpm[] = {
"21 21 122 2",
"  	c None",
". 	c #32434B",
"+ 	c #31424A",
"@ 	c #304149",
"# 	c #A55C13",
"$ 	c #A4560A",
"% 	c #A4570B",
"& 	c #A4580E",
"* 	c #C6B19C",
"= 	c #CABAAB",
"- 	c #CAB9A8",
"; 	c #CABAA9",
"> 	c #CABAAA",
", 	c #CAB9A9",
"' 	c #CAB8A7",
") 	c #CAB7A6",
"! 	c #C6B099",
"~ 	c #A4590F",
"{ 	c #C6A98E",
"] 	c #CAB29D",
"^ 	c #C8B19A",
"/ 	c #C9B29C",
"( 	c #C9B19C",
"_ 	c #C8B199",
": 	c #C8B098",
"< 	c #C8AF97",
"[ 	c #C9B199",
"} 	c #C5A88D",
"| 	c #304048",
"1 	c #C4A17E",
"2 	c #C8A98D",
"3 	c #C7A789",
"4 	c #C7A98A",
"5 	c #C7A88B",
"6 	c #C6A686",
"7 	c #C6A483",
"8 	c #C7A687",
"9 	c #C7A98B",
"0 	c #C7A788",
"a 	c #C6A586",
"b 	c #C7A787",
"c 	c #C6A585",
"d 	c #C49F7C",
"e 	c #2F3E46",
"f 	c #A45910",
"g 	c #C29569",
"h 	c #C69D75",
"i 	c #C69C74",
"j 	c #C69D76",
"k 	c #C69D74",
"l 	c #C59A70",
"m 	c #C59970",
"n 	c #C5986C",
"o 	c #C69A70",
"p 	c #C69A71",
"q 	c #C5996E",
"r 	c #C5996F",
"s 	c #C29467",
"t 	c #2E3D45",
"u 	c #A45A11",
"v 	c #C18851",
"w 	c #C38F5C",
"x 	c #C38D58",
"y 	c #C38E5B",
"z 	c #C38C57",
"A 	c #C28B54",
"B 	c #C28952",
"C 	c #C28C57",
"D 	c #C38C58",
"E 	c #C28A54",
"F 	c #C38C56",
"G 	c #C38B54",
"H 	c #C1864E",
"I 	c #2D3C44",
"J 	c #2C3B43",
"K 	c #A45A12",
"L 	c #BE7835",
"M 	c #C17E3D",
"N 	c #C17C3A",
"O 	c #C17D3C",
"P 	c #C07C38",
"Q 	c #C07A36",
"R 	c #C07833",
"S 	c #C17B38",
"T 	c #C17F3F",
"U 	c #C17C39",
"V 	c #C07935",
"W 	c #C17B39",
"X 	c #C17B37",
"Y 	c #C07934",
"Z 	c #C07B37",
"` 	c #BE7832",
" .	c #2C3A42",
"..	c #BD6E21",
"+.	c #BF7024",
"@.	c #2B3940",
"#.	c #A35A12",
"$.	c #C17023",
"%.	c #B17A45",
"&.	c #A55F19",
"*.	c #A45509",
"=.	c #A5601C",
"-.	c #B17A43",
";.	c #C17022",
">.	c #C17226",
",.	c #A55404",
"'.	c #C2A78D",
").	c #CCC1B7",
"!.	c #CABEB1",
"~.	c #CCC2B8",
"{.	c #BFA184",
"].	c #A75505",
"^.	c #2A383F",
"/.	c #A35911",
"(.	c #BE7A37",
"_.	c #C27E3C",
":.	c #B17C49",
"<.	c #A55E18",
"[.	c #A5601B",
"}.	c #B17C48",
"|.	c #C27D3B",
"1.	c #A45B12",
". . . . . . . . . . . . . . . . . . . . . ",
"+ + + . . . . . . . . . . . . . . . . . . ",
"@ # $ % % % % % % % % % % % % % % % $ # @ ",
"@ & * = - ; > , ' ) - ; - ' ' - ' , ! & @ ",
"@ ~ { ] ^ / ( _ : < [ / [ : ^ _ : [ } ~ @ ",
"| ~ 1 2 3 4 5 3 6 7 8 9 0 a 0 b c 8 d ~ | ",
"e f g h i j k l m n o j p q l l r m s f e ",
"t u v w x y y z A B C w D E z F A G H u I ",
"J K L M N O M P Q R S T U V W X Y Z ` K J ",
" .K ..+.+.+.+.+.+.+.+.+.+.+.+.+.+.+...K  .",
"@.K ..+.+.+.+.+.+.+.+.+.+.+.+.+.+.+...K @.",
"@.#...$.%.&.$ % % % % % % *.=.-.;.+...#.@.",
"@.#...>.,.'.).!.!.!.!.!.!.~.{.].>.+...#.@.",
"^.#...>.,.'.).!.!.!.!.!.!.~.{.].>.+...#.^.",
"^.#...>.,.'.).!.!.!.!.!.!.~.{.].>.+...#.^.",
"^./.(._.:.<.$ % % % % % % *.[.}.|.M (./.^.",
"^./.(.M O O O O O O O O O O O O O M (./.^.",
"^.1.$ % % % % % % % % % % % % % % % $ 1.^.",
"^.^.^.^.^.^.^.^.^.^.^.^.^.^.^.^.^.^.^.^.^.",
"^.^.^.^.^.^.^.^.^.^.^.^.^.^.^.^.^.^.^.^.^.",
"^.^.^.^.^.^.^.^.^.^.^.^.^.^.^.^.^.^.^.^.^."};
