/* XPM */
static char * min_pressed_xpm[] = {
"21 21 130 2",
"  	c None",
". 	c #32434B",
"+ 	c #31424A",
"@ 	c #304149",
"# 	c #E6750B",
"$ 	c #E56E00",
"% 	c #E56F00",
"& 	c #E57103",
"* 	c #FDF3D9",
"= 	c #FFFFF0",
"- 	c #FFFFEB",
"; 	c #FFFFEE",
"> 	c #FFFFEF",
", 	c #FFFFEC",
"' 	c #FFFFEA",
") 	c #FFFFE8",
"! 	c #FFFFED",
"~ 	c #FDF3D6",
"{ 	c #E57104",
"] 	c #FDEEC4",
"^ 	c #FFFCDB",
"/ 	c #FFF8D6",
"( 	c #FFFAD8",
"_ 	c #FFFBD9",
": 	c #FFF7D3",
"< 	c #FFF6D1",
"[ 	c #FFF8D5",
"} 	c #FFF9D5",
"| 	c #FFF7D2",
"1 	c #FDEBC2",
"2 	c #304048",
"3 	c #E57105",
"4 	c #FDE0AB",
"5 	c #FFEDC1",
"6 	c #FFEABB",
"7 	c #FFECBE",
"8 	c #FFEBBF",
"9 	c #FFEBBC",
"0 	c #FFE8B8",
"a 	c #FFE5B3",
"b 	c #FFE8B9",
"c 	c #FFECBF",
"d 	c #FFE9B9",
"e 	c #FFE8B7",
"f 	c #FFEABA",
"g 	c #FFE7B6",
"h 	c #FDDEA9",
"i 	c #2F3E46",
"j 	c #E57106",
"k 	c #FDCE8C",
"l 	c #FFDB9F",
"m 	c #FFD99B",
"n 	c #FFDA9E",
"o 	c #FFDA9D",
"p 	c #FFD697",
"q 	c #FFD595",
"r 	c #FFD391",
"s 	c #FFDA9F",
"t 	c #FFD797",
"u 	c #FFD494",
"v 	c #FFD696",
"w 	c #FFD596",
"x 	c #FDCC88",
"y 	c #E57206",
"z 	c #2E3D45",
"A 	c #E57207",
"B 	c #FDBA67",
"C 	c #FFC578",
"D 	c #FFC173",
"E 	c #FFC376",
"F 	c #FFC475",
"G 	c #FFC06F",
"H 	c #FFBF6C",
"I 	c #FFBD68",
"J 	c #FFC170",
"K 	c #FFBE6B",
"L 	c #FFC06E",
"M 	c #FFBF6B",
"N 	c #FDB863",
"O 	c #2D3C44",
"P 	c #2C3B43",
"Q 	c #E47308",
"R 	c #FDA33C",
"S 	c #FFAB48",
"T 	c #FFA844",
"U 	c #FFAA47",
"V 	c #FFA741",
"W 	c #FFA53D",
"X 	c #FFA339",
"Y 	c #FFA840",
"Z 	c #FFAD4A",
"` 	c #FFA742",
" .	c #FFA43C",
"..	c #FFA642",
"+.	c #FFA640",
"@.	c #FFA43B",
"#.	c #FFA63E",
"$.	c #FDA138",
"%.	c #2C3A42",
"&.	c #E47309",
"*.	c #FD931E",
"=.	c #FF9722",
"-.	c #2B3940",
";.	c #E37209",
">.	c #FF971F",
",.	c #F5A554",
"'.	c #E77B14",
").	c #E56D00",
"!.	c #E46D00",
"~.	c #E87E19",
"{.	c #F6A552",
"].	c #FF961E",
"^.	c #E37208",
"/.	c #FF9A24",
"(.	c #E86C00",
"_.	c #F9DFC3",
":.	c #FFFFFF",
"<.	c #FFFFFA",
"[.	c #F7D7B6",
"}.	c #E96D00",
"|.	c #2A383F",
"1.	c #E37207",
"2.	c #FDA540",
"3.	c #FFAB47",
"4.	c #F5A95A",
"5.	c #E77A13",
"6.	c #E87D18",
"7.	c #F6A95A",
"8.	c #FFAA46",
"9.	c #E4740A",
". . . . . . . . . . . . . . . . . . . . . ",
"+ + + . . . . . . . . . . . . . . . . . . ",
"@ # $ % % % % % % % % % % % % % % % $ # @ ",
"@ & * = - ; > , ' ) ' ! - ' ' - ' ! ~ { @ ",
"@ { ] ^ / ( _ / : < [ _ } : / [ | } 1 { @ ",
"2 3 4 5 6 7 8 9 0 a b c d e f d g d h 3 2 ",
"i j k l m n o p q r p s t u p v u w x y i ",
"z A B C D E F G H I G C J K G L M H N A O ",
"P Q R S T U S V W X Y Z `  ...+.@.#.$.Q P ",
"%.&.*.=.=.=.=.=.=.=.=.=.=.=.=.=.=.=.*.&.%.",
"-.&.*.=.=.=.=.=.=.=.=.=.=.=.=.=.=.=.*.&.-.",
"-.;.*.>.,.'.).% % % % % % !.~.{.].=.*.;.-.",
"-.^.*./.(._.:.<.<.<.<.<.<.:.[.}./.=.*.^.-.",
"|.^.*./.(._.:.<.<.<.<.<.<.:.[.}./.=.*.^.|.",
"|.^.*./.(._.:.<.<.<.<.<.<.:.[.}./.=.*.^.|.",
"|.1.2.3.4.5.).% % % % % % !.6.7.8.S 2.1.|.",
"|.1.2.S U U U U U U U U U U U U U S 2.1.|.",
"|.9.$ % % % % % % % % % % % % % % % $ 9.|.",
"|.|.|.|.|.|.|.|.|.|.|.|.|.|.|.|.|.|.|.|.|.",
"|.|.|.|.|.|.|.|.|.|.|.|.|.|.|.|.|.|.|.|.|.",
"|.|.|.|.|.|.|.|.|.|.|.|.|.|.|.|.|.|.|.|.|."};
