/* XPM */
static char * nUmer_xpm[] = {
"21 21 12 1",
" 	c None",
".	c #32434B",
"+	c #31424A",
"@	c #304149",
"#	c #304048",
"$	c #2F3E46",
"%	c #2E3D45",
"&	c #2D3C44",
"*	c #2C3B43",
"=	c #2C3A42",
"-	c #2B3940",
";	c #2A383F",
".....................",
"+++..................",
"@@@@@@@@@@@@@@@@@@@@@",
"@@@@@@@@@@@@@@@@@@@@@",
"@@@@@@@@@@@@@@@@@@@@@",
"#####################",
"$$$$$$$$$$$$$$$$$$$$$",
"%%%%%%%%%%%%%%%%%%%%&",
"********&&&&&********",
"=====================",
"---------------------",
"---------------------",
"---------------------",
";;;-----------------;",
";;;;;;;;;;;;;;;;;;;;;",
";;;;;;;;;;;;;;;;;;;;;",
";;;;;;;;;;;;;;;;;;;;;",
";;;;;;;;;;;;;;;;;;;;;",
";;;;;;;;;;;;;;;;;;;;;",
";;;;;;;;;;;;;;;;;;;;;",
";;;;;;;;;;;;;;;;;;;;;"};
