/* XPM */
static char * selected_xpm[] = {
"20 21 20 1",
" 	c None",
".	c #5C7A8A",
"+	c #5B7988",
"@	c #5A7887",
"#	c #587685",
"$	c #597786",
"%	c #577482",
"&	c #557280",
"*	c #567381",
"=	c #54717F",
"-	c #536E7C",
";	c #526D7B",
">	c #506A78",
",	c #506B79",
"'	c #4D6774",
")	c #4E6875",
"!	c #4B6470",
"~	c #4C6572",
"{	c #49626E",
"]	c #48606C",
".........+..........",
"@@@@@@@@@@@@@@@@@@@@",
"#################$##",
"%%%%%%%%%%%%%%%%%%%%",
"&&&&&&&*&=*==*&****&",
"---------;----------",
">,,,,,,,,>,>,,,,,,,,",
"''''''''''''')'))))'",
"!!!!!!!!!!~!!~!~~~~!",
"{{{{{{{{{{{{{{{{{{{{",
"]]]]]]]]]]]]]]]]]]]]",
"]]]]]]]]]]]]]]]]]]]]",
"]]]]]]]]]]]]]]]]]]]]",
"]]]]]]]]]]]]]]]]]]]]",
"]]]]]]]]]]]]]]]]]]]]",
"]]]]]]]]]]]]]]]]]]]]",
"]]]]]]]]]]]]]]]]]]]]",
"]]]]]]]]]]]]]]]]]]]]",
"]]]]]]]]]]]]]]]]]]]]",
"]]]]]]]]]]]]]]]]]]]]",
"]]]]]]]]]]]]]]]]]]]]"};
