/* XPM */
static char * sticky_xpm[] = {
"21 21 41 1",
" 	c None",
".	c #32434B",
"+	c #31424A",
"@	c #304149",
"#	c #384B55",
"$	c #5D7C8C",
"%	c #5E7D8D",
"&	c #5C7B8B",
"*	c #5A7887",
"=	c #5B7988",
"-	c #597786",
";	c #304048",
">	c #577482",
",	c #587584",
"'	c #557280",
")	c #567381",
"!	c #2F3E46",
"~	c #526D7B",
"{	c #536E7C",
"]	c #506B79",
"^	c #516C7A",
"/	c #2E3D45",
"(	c #4C6673",
"_	c #4D6774",
":	c #4E6875",
"<	c #4B6470",
"[	c #28353C",
"}	c #4A636F",
"|	c #2D3C44",
"1	c #2C3B43",
"2	c #465D69",
"3	c #475E6A",
"4	c #485F6C",
"5	c #445B67",
"6	c #658798",
"7	c #445A65",
"8	c #2C3A42",
"9	c #405661",
"0	c #415762",
"a	c #2A383F",
"b	c #2B3940",
".....................",
"+++..................",
"@###################@",
"@#$%%&%%%%%%%%&$&%&#@",
"@#*==-=========*-=-#@",
";#>>,''''''''')>),'#;",
"!#~~{]]]]]]]]]^~^{]#!",
"/#(_:<[[[[[[[[<(<:}#|",
"1#2345[666666[52547#1",
"8#9909[6aaaa6[99999#8",
"b#9999[6aaaa6[99999#b",
"b#9999[666666[99999#b",
"b#9999[[[[[[[[99999#b",
"a#99999999999999999#a",
"a#99999999999999999#a",
"a#99999999999999999#a",
"a#99999999999999999#a",
"a###################a",
"aaaaaaaaaaaaaaaaaaaaa",
"aaaaaaaaaaaaaaaaaaaaa",
"aaaaaaaaaaaaaaaaaaaaa"};
