/* XPM */
static char * sticky_unfocus_xpm[] = {
"21 21 53 1",
" 	c None",
".	c #32434B",
"+	c #31424A",
"@	c #304149",
"#	c #5A707C",
"$	c #A1A4A5",
"%	c #A1A5A6",
"&	c #9FA3A5",
"*	c #A0A3A5",
"=	c #9EA3A5",
"-	c #9BA0A2",
";	c #9CA1A3",
">	c #999EA1",
",	c #9A9FA2",
"'	c #304048",
")	c #949A9E",
"!	c #959B9E",
"~	c #959C9F",
"{	c #92999D",
"]	c #93999D",
"^	c #959A9E",
"/	c #91989C",
"(	c #2F3E46",
"_	c #8C9499",
":	c #8D9599",
"<	c #899297",
"[	c #899397",
"}	c #8A9398",
"|	c #8E9599",
"1	c #889197",
"2	c #2E3D45",
"3	c #818C93",
"4	c #838D93",
"5	c #838E94",
"6	c #7E8991",
"7	c #325A72",
"8	c #808A91",
"9	c #848E94",
"0	c #7D8990",
"a	c #2D3C44",
"b	c #2C3B43",
"c	c #74838B",
"d	c #77848C",
"e	c #78858D",
"f	c #728189",
"g	c #AEAEAE",
"h	c #738189",
"i	c #75838B",
"j	c #708089",
"k	c #2C3A42",
"l	c #6C7C85",
"m	c #2A383F",
"n	c #2B3940",
".....................",
"+++..................",
"@###################@",
"@#$%%&%%%%%%%%*$*%=#@",
"@#-;;>;;;;;;;;;-,;>#@",
"'#)!~{{{{{{{{{]^]~/#'",
"(#_::<<<<<<<<<[_}|1#(",
"2#34567777777783890#a",
"b#cdef7gggggg7hihej#b",
"k#llll7gmmmmg7lllll#k",
"n#llll7gmmmmg7lllll#n",
"n#llll7gggggg7lllll#n",
"n#llll77777777lllll#n",
"m#lllllllllllllllll#m",
"m#lllllllllllllllll#m",
"m#lllllllllllllllll#m",
"m#lllllllllllllllll#m",
"m###################m",
"mmmmmmmmmmmmmmmmmmmmm",
"mmmmmmmmmmmmmmmmmmmmm",
"mmmmmmmmmmmmmmmmmmmmm"};
