/* XPM */
static char * sticky_pressed_xpm[] = {
"21 21 50 1",
" 	c None",
".	c #32434B",
"+	c #31424A",
"@	c #304149",
"#	c #5E8295",
"$	c #CDCDCD",
"%	c #CACDCD",
"&	c #CBCDCD",
"*	c #C6CDCD",
"=	c #C9CDCD",
"-	c #304048",
";	c #BEC9CD",
">	c #C0CACD",
",	c #C1CACD",
"'	c #BAC6CD",
")	c #BCC6CD",
"!	c #B9C5CB",
"~	c #2F3E46",
"{	c #B0BEC6",
"]	c #B1BEC6",
"^	c #B3C0C7",
"/	c #ACBAC3",
"(	c #ADBCC3",
"_	c #AEBCC5",
":	c #B4C1C7",
"<	c #AABAC2",
"[	c #2E3D45",
"}	c #9FB1BC",
"|	c #A1B3BD",
"1	c #A2B4BE",
"2	c #9AADB9",
"3	c #1B5E85",
"4	c #9DAEBA",
"5	c #A3B4BE",
"6	c #99ACB7",
"7	c #2D3C44",
"8	c #2C3B43",
"9	c #8BA1AF",
"0	c #8DA3B1",
"a	c #90A5B1",
"b	c #859EAC",
"c	c #889FAD",
"d	c #8CA2AF",
"e	c #849DAB",
"f	c #2C3A42",
"g	c #7B95A5",
"h	c #7C97A6",
"i	c #B9CACD",
"j	c #2B3940",
"k	c #2A383F",
".....................",
"+++..................",
"@###################@",
"@#$$$$$$$$$$$$$$$$$#@",
"@#%%&*&&&&&&&&&%=&*#@",
"-#;>,''''''''');),!#-",
"~#{]^/////////({_:<#~",
"[#}|12333333334}456#7",
"8#90ab3$$$$$$3cdcae#8",
"f#gghg3$iiii$3ggggg#f",
"j#gggg3$iiii$3ggggg#j",
"j#gggg3$$$$$$3ggggg#j",
"j#gggg33333333ggggg#j",
"k#ggggggggggggggggg#k",
"k#ggggggggggggggggg#k",
"k#ggggggggggggggggg#k",
"k#ggggggggggggggggg#k",
"k###################k",
"kkkkkkkkkkkkkkkkkkkkk",
"kkkkkkkkkkkkkkkkkkkkk",
"kkkkkkkkkkkkkkkkkkkkk"};
