/* XPM */
static char * title_xpm[] = {
"20 21 21 1",
" 	c None",
".	c #587685",
"+	c #577482",
"@	c #54717F",
"#	c #526D7B",
"$	c #516C7A",
"%	c #4E6875",
"&	c #4D6774",
"*	c #4B6470",
"=	c #4A636F",
"-	c #49626E",
";	c #465D69",
">	c #455C68",
",	c #425863",
"'	c #3F545E",
")	c #3E535D",
"!	c #3C515B",
"~	c #3C505A",
"{	c #3A4D57",
"]	c #394C56",
"^	c #384B55",
"....................",
"++++++++++++++++++++",
"@@@@@@@@@@@@@@@@@@@@",
"###################$",
"%%%%%%%%%%%%%%%%%%%&",
"*==================-",
";;;;;;;;;;;;;;;;;;;>",
",,,,,,,,,,,,,,,,,,,,",
"'''')))))))))'''')))",
"!!!!!!!!!!!!!!!!!!!~",
"{{{{{{{{{{{{{{{{{{{{",
"]]]^^^^^^^^^^^^^^^^^",
"^^^^^^^^^^^^^^^^^^^^",
"^^^^^^^^^^^^^^^^^^^^",
"^^^^^^^^^^^^^^^^^^^^",
"^^^^^^^^^^^^^^^^^^^^",
"^^^^^^^^^^^^^^^^^^^^",
"^^^^^^^^^^^^^^^^^^^^",
"^^^^^^^^^^^^^^^^^^^^",
"^^^^^^^^^^^^^^^^^^^^",
"^^^^^^^^^^^^^^^^^^^^"};
