/* XPM */
static char * un_sticky_xpm[] = {
"21 21 29 1",
" 	c None",
".	c #32434B",
"+	c #31424A",
"@	c #304149",
"#	c #28353C",
"$	c #5D7C8C",
"%	c #5A7887",
"&	c #5B7988",
"*	c #597786",
"=	c #304048",
"-	c #577482",
";	c #567381",
">	c #2F3E46",
",	c #526D7B",
"'	c #516C7A",
")	c #2E3D45",
"!	c #4C6673",
"~	c #658798",
"{	c #4D6774",
"]	c #4C6572",
"^	c #2D3C44",
"/	c #2C3B43",
"(	c #465D69",
"_	c #405661",
":	c #475E6A",
"<	c #455C68",
"[	c #2C3A42",
"}	c #2B3940",
"|	c #2A383F",
".....................",
"+++..................",
"@###################@",
"@#$$$$$$$$$$$$$$$$$#@",
"@#%%%%%%%%%%%%%%%&*#@",
"=#----------------;#=",
">#,,,##########,,,'#>",
")#!!!#~~~~~~~~#{{{]#^",
"/#(((#~______~#:::<#/",
"[#___#~______~#____#[",
"}#___#~______~#____#}",
"}#___#~______~#____#}",
"}#___#~~~~~~~~#____#}",
"|#___##########____#|",
"|#_________________#|",
"|#_________________#|",
"|#_________________#|",
"|###################|",
"|||||||||||||||||||||",
"|||||||||||||||||||||",
"|||||||||||||||||||||"};
