/* XPM */
static char * un_sticky_unfocus_xpm[] = {
"21 21 32 1",
" 	c None",
".	c #32434B",
"+	c #31424A",
"@	c #304149",
"#	c #2F5B74",
"$	c #A5A9AB",
"%	c #A6A9AC",
"&	c #A0A5A8",
"*	c #A1A5A9",
"=	c #9FA5A8",
"-	c #304048",
";	c #999FA3",
">	c #99A0A4",
",	c #989FA2",
"'	c #2F3E46",
")	c #90999E",
"!	c #91999E",
"~	c #8E989D",
"{	c #2E3D45",
"]	c #859097",
"^	c #B5B5B5",
"/	c #869198",
"(	c #838F96",
"_	c #2D3C44",
":	c #2C3B43",
"<	c #78868F",
"[	c #6D7E89",
"}	c #788790",
"|	c #77858E",
"1	c #2C3A42",
"2	c #2B3940",
"3	c #2A383F",
".....................",
"+++..................",
"@###################@",
"@#$$$$$$$$$$$$$$$$%#@",
"@#&&&&&&&&&&&&&&&*=#@",
"-#;;;;;;;;;;;;;;;>,#-",
"'#)))##########!!!~#'",
"{#]]]#^^^^^^^^#///(#_",
":#<<<#^[[[[[[^#}}}|#:",
"1#[[[#^[[[[[[^#[[[[#1",
"2#[[[#^[[[[[[^#[[[[#2",
"2#[[[#^[[[[[[^#[[[[#2",
"2#[[[#^^^^^^^^#[[[[#2",
"3#[[[##########[[[[#3",
"3#[[[[[[[[[[[[[[[[[#3",
"3#[[[[[[[[[[[[[[[[[#3",
"3#[[[[[[[[[[[[[[[[[#3",
"3###################3",
"333333333333333333333",
"333333333333333333333",
"333333333333333333333"};
