/* XPM */
static char * bar_xpm[] = {
"22 22 11 1",
" 	c None",
".	c #FAFEFF",
"+	c #F9FDFE",
"@	c #F2F2F2",
"#	c #F1F1F1",
"$	c #F3F2F0",
"%	c #F4F3F1",
"&	c #F1F3F2",
"*	c #E4E4E4",
"=	c #E5E5E5",
"-	c #E6E6E6",
"..........++++++++....",
"@@#@@@@@@#########@@@@",
"$$$%%%%%%$%%%%%%%%%%%%",
"&&&&&&&&&&&&&&&&&&&&&&",
"@@@@@@@@@@@@@@@@@@@@@@",
"@@@@@@@@@@@@@@@@@@@@@@",
"@@@@@@@@@@@@@@@@@@@@@@",
"@@@@@@@@@@@@@@@@@@@@@@",
"@@@@@@@@@@@@@@@@@@@@@@",
"@@@@@@@@@@@@@@@@@@@@@@",
"@@@@@@@@@@@@@@@@@@@@@@",
"@@@@@@@@@@@@@@@@@@@@@@",
"@@@@@@@@@@@@@@@@@@@@@@",
"@@@@@@@@@@@@@@@@@@@@@@",
"######################",
"######################",
"######################",
"######################",
"######################",
"######################",
"##################@@@@",
"**********========----"};
