/* XPM */
static char * close_xpm[] = {
"22 21 120 2",
"  	c None",
". 	c #F2F2F2",
"+ 	c #F1F1F1",
"@ 	c #F3F3F3",
"# 	c #F4F4F4",
"$ 	c #F5F5F5",
"% 	c #F0F0F0",
"& 	c #F0EEEF",
"* 	c #EFEFEF",
"= 	c #EDEFEE",
"- 	c #F4F6F5",
"; 	c #F4F3F1",
"> 	c #F3F2F0",
", 	c #F1F0EE",
"' 	c #F2F1EF",
") 	c #F5F4F2",
"! 	c #EFEEEC",
"~ 	c #F8F7F5",
"{ 	c #F6F5F3",
"] 	c #F1F3F2",
"^ 	c #F0F2F1",
"/ 	c #E1E3E2",
"( 	c #DCDEDD",
"_ 	c #DBDDDC",
": 	c #DEE0DF",
"< 	c #DADCDB",
"[ 	c #E2E4E3",
"} 	c #EEF0EF",
"| 	c #F2F4F3",
"1 	c #EEEEEE",
"2 	c #F6F6F6",
"3 	c #E6E6E6",
"4 	c #D6D6D6",
"5 	c #EDEDED",
"6 	c #FCFCFC",
"7 	c #F7F7F7",
"8 	c #FEFEFE",
"9 	c #F9F9F9",
"0 	c #FFFFFF",
"a 	c #EBEBEB",
"b 	c #D3D3D3",
"c 	c #E9E9E9",
"d 	c #D0D0D0",
"e 	c #F8F8F8",
"f 	c #E0E0E0",
"g 	c #C6C6C6",
"h 	c #EAEAEA",
"i 	c #CECECE",
"j 	c #DFDFDF",
"k 	c #656565",
"l 	c #7D7D7D",
"m 	c #858585",
"n 	c #5A5A5A",
"o 	c #FBFBFB",
"p 	c #CBCBCB",
"q 	c #E8E8E8",
"r 	c #D4D4D4",
"s 	c #292929",
"t 	c #787878",
"u 	c #E7E7E7",
"v 	c #808080",
"w 	c #E2E2E2",
"x 	c #E5E5E5",
"y 	c #CFCFCF",
"z 	c #C2C2C2",
"A 	c #303030",
"B 	c #404040",
"C 	c #2A2A2A",
"D 	c #DEDEDE",
"E 	c #C3C3C3",
"F 	c #BBBBBB",
"G 	c #E4E4E4",
"H 	c #DBDBDB",
"I 	c #ECECEC",
"J 	c #727272",
"K 	c #191919",
"L 	c #747474",
"M 	c #E1E1E1",
"N 	c #DADADA",
"O 	c #E3E3E3",
"P 	c #B8B8B8",
"Q 	c #BABABA",
"R 	c #D5D5D5",
"S 	c #D9D9D9",
"T 	c #D8D8D8",
"U 	c #2D2D2D",
"V 	c #BFBFBF",
"W 	c #6D6D6D",
"X 	c #D7D7D7",
"Y 	c #BEBEBE",
"Z 	c #C0C0C0",
"` 	c #D2D2D2",
" .	c #7C7C7C",
"..	c #313131",
"+.	c #6F6F6F",
"@.	c #A1A1A1",
"#.	c #DDDDDD",
"$.	c #CDCDCD",
"%.	c #959595",
"&.	c #DCDCDC",
"*.	c #8D8D8D",
"=.	c #A8A8A8",
"-.	c #B4B4B4",
";.	c #CACACA",
">.	c #B7B7B7",
",.	c #B0B0B0",
"'.	c #A3A3A3",
").	c #C9C9C9",
"!.	c #C7C7C7",
"~.	c #C8C8C8",
"{.	c #AEAEAE",
"].	c #A7A7A7",
"^.	c #B2B2B2",
"/.	c #868686",
"(.	c #838383",
"_.	c #B6B6B6",
":.	c #CCCCCC",
"<.	c #B9B9B9",
"[.	c #979797",
"}.	c #989898",
". . . . + + + + @ @ # $ # + % + & * + * = - ",
"; > > > > > > , ' ) > ! ' ~ ) ; { ; ! ! ! ! ",
"] ] ^ ^ ^ ^ / ( _ : ( < [ } | } % # # # # # ",
"+ 1 2 @ 3 4 5 6 7 8 9 0 a b c 2 * * $ $ $ $ ",
"# 1 1 1 d 7 7 2 9 $ e + 7 2 4 f e # @ @ @ @ ",
". e 1 g . 2 1 * 1 h % % + $ c i a # @ @ @ @ ",
"$ + j d 9 c k l . 5 a m n h o b 4 % 2 2 2 2 ",
"+ h p . f q r s t u v s b w 3 x y 1 7 7 7 7 ",
"% 1 z c 3 w a 3 A B C r 5 u D 1 E * . . . . ",
"2 5 F G G H j I J K L M 3 N O h P 5 * * * * ",
"* a Q h R S T L U V U W H X 4 w Y a + + + + ",
"+ + Z ` N `  .s r . f ..+.b r r E 1 . . . . ",
"# + b @.#.$.%.&.x $.M j *.4 N =.$.% * * * * ",
"* % u -.Y ` c H b $.;.G h R >.,.u 5 % % % % ",
"+ 1 a j '.>.r ).z z !.~.4 {.].f . * + + + + ",
"# @ + a y ^./.F ).r ` F (._.b % c 2 % % % % ",
"+ # # + # M :.<.].[.}.<.).j @ I * @ @ @ @ @ ",
"+ 1 5 % c $ a a b N M x % 1 % % e 1 # # # # ",
"% . . 1 e 1 + @ + % 1 @ * + @ % 1 + * * * * ",
"% % % % % % % + + + + + + + + + + + + + + + ",
"* * * * * * * * % % % % % % % % + + + + + + "};
