/* XPM */
static char * close_pressed_xpm[] = {
"22 21 85 1",
" 	c None",
".	c #F2F2F2",
"+	c #F1F1F1",
"@	c #F3F3F3",
"#	c #F4F4F4",
"$	c #F5F5F5",
"%	c #F0F0F0",
"&	c #F0EEEF",
"*	c #EFEFEF",
"=	c #EDEFEE",
"-	c #F4F6F5",
";	c #F4F3F1",
">	c #F3F2F0",
",	c #F1F0EE",
"'	c #F2F1EF",
")	c #F5F4F2",
"!	c #EFEEEC",
"~	c #F8F7F5",
"{	c #F6F5F3",
"]	c #F1F3F2",
"^	c #F0F2F1",
"/	c #E1E3E2",
"(	c #DCDEDD",
"_	c #DBDDDC",
":	c #DEE0DF",
"<	c #DADCDB",
"[	c #E2E4E3",
"}	c #EEF0EF",
"|	c #F2F4F3",
"1	c #EEEEEE",
"2	c #F6F6F6",
"3	c #E6E6E6",
"4	c #D6D6D6",
"5	c #EDEDED",
"6	c #FCFCFC",
"7	c #F7F7F7",
"8	c #FEFEFE",
"9	c #F9F9F9",
"0	c #FFFFFF",
"a	c #EBEBEB",
"b	c #D3D3D3",
"c	c #E9E9E9",
"d	c #D0D0D0",
"e	c #F8F8F8",
"f	c #E0E0E0",
"g	c #C6C6C6",
"h	c #EAEAEA",
"i	c #D9D9D9",
"j	c #DFDFDF",
"k	c #656565",
"l	c #7D7D7D",
"m	c #858585",
"n	c #5A5A5A",
"o	c #FBFBFB",
"p	c #E8E8E8",
"q	c #D4D4D4",
"r	c #292929",
"s	c #787878",
"t	c #E7E7E7",
"u	c #808080",
"v	c #E2E2E2",
"w	c #E5E5E5",
"x	c #303030",
"y	c #404040",
"z	c #2A2A2A",
"A	c #DEDEDE",
"B	c #E4E4E4",
"C	c #DADADA",
"D	c #ECECEC",
"E	c #727272",
"F	c #191919",
"G	c #747474",
"H	c #E1E1E1",
"I	c #E3E3E3",
"J	c #D8D8D8",
"K	c #2D2D2D",
"L	c #BFBFBF",
"M	c #6D6D6D",
"N	c #7C7C7C",
"O	c #313131",
"P	c #6F6F6F",
"Q	c #DCDCDC",
"R	c #959595",
"S	c #DBDBDB",
"T	c #8D8D8D",
"....++++@@#$#+%+&*+*=-",
";>>>>>>,')>!'~);{;!!!!",
"]]^^^^/(_:(<[}|}%#####",
"+12@34567890abc2**$$$$",
"#111d7729$e+724fe#@@@@",
".e1g.21*1h%%+$cia#@@@@",
"$+jd9ckl.5amnhoii%2222",
"+hi.fpqrsturbv3wi17777",
"%1ic3va3xyzq5tA1i*....",
"25iBBCjDEFGH3iIhi5****",
"*aihiiJGKLKMCiivia++++",
"++iiiJNrq.fOPiiii1....",
"#+iiQiRSwiHjTiiii%****",
"*%tiiJcCiiiBhiiit5%%%%",
"+1ajiiiiiiiiiiif.*++++",
"#@+aiiiiiiJiiii%c2%%%%",
"+##+#Hiiiiiiij@D*@@@@@",
"+15%c$aaiiHw%1%%e1####",
"%..1e1+@+%1@*+@%1+****",
"%%%%%%%+++++++++++++++",
"********%%%%%%%%++++++"};
