/* XPM */
static char * max_xpm[] = {
"23 21 124 2",
"  	c None",
". 	c #F2F2F2",
"+ 	c #EFEFEF",
"@ 	c #F1F1F1",
"# 	c #F3F3F3",
"$ 	c #F0F0F0",
"% 	c #F4F3F1",
"& 	c #F7F6F4",
"* 	c #F1F0EE",
"= 	c #F0EFED",
"- 	c #F5F4F2",
"; 	c #F6F5F3",
"> 	c #F3F2F0",
", 	c #F1F3F2",
"' 	c #EDEFEE",
") 	c #E1E3E2",
"! 	c #DADCDB",
"~ 	c #DCDEDD",
"{ 	c #DEE0DF",
"] 	c #DBDDDC",
"^ 	c #E0E2E1",
"/ 	c #F0F2F1",
"( 	c #EEEEEE",
"_ 	c #F8F8F8",
": 	c #E9E9E9",
"< 	c #D4D4D4",
"[ 	c #EDEDED",
"} 	c #FFFFFF",
"| 	c #FBFBFB",
"1 	c #FDFDFD",
"2 	c #D7D7D7",
"3 	c #E4E4E4",
"4 	c #F5F5F5",
"5 	c #F4F4F4",
"6 	c #F7F7F7",
"7 	c #E2E2E2",
"8 	c #D6D6D6",
"9 	c #F6F6F6",
"0 	c #D5D5D5",
"a 	c #D0D0D0",
"b 	c #EAEAEA",
"c 	c #ECECEC",
"d 	c #CACACA",
"e 	c #E8E8E8",
"f 	c #CDCDCD",
"g 	c #E0E0E0",
"h 	c #E7E7E7",
"i 	c #E6E6E6",
"j 	c #E5E5E5",
"k 	c #B4B4B4",
"l 	c #0E0E0E",
"m 	c #989898",
"n 	c #CBCBCB",
"o 	c #EBEBEB",
"p 	c #C1C1C1",
"q 	c #DEDEDE",
"r 	c #A3A3A3",
"s 	c #1A1A1A",
"t 	c #9A9A9A",
"u 	c #212121",
"v 	c #969696",
"w 	c #E1E1E1",
"x 	c #BFBFBF",
"y 	c #B7B7B7",
"z 	c #E3E3E3",
"A 	c #9B9B9B",
"B 	c #202020",
"C 	c #FCFCFC",
"D 	c #191919",
"E 	c #959595",
"F 	c #D9D9D9",
"G 	c #BCBCBC",
"H 	c #F9F9F9",
"I 	c #888888",
"J 	c #B8B8B8",
"K 	c #C3C3C3",
"L 	c #7E7E7E",
"M 	c #DADADA",
"N 	c #D3D3D3",
"O 	c #B9B9B9",
"P 	c #C5C5C5",
"Q 	c #D7D5D6",
"R 	c #ECEAEB",
"S 	c #F3F1F2",
"T 	c #D2D0D1",
"U 	c #D4D2D3",
"V 	c #D9D7D8",
"W 	c #EDEBEC",
"X 	c #F0EEEF",
"Y 	c #D1D1D1",
"Z 	c #C0C0C0",
"` 	c #A9A9A9",
" .	c #DBDBDB",
"..	c #D3D1D2",
"+.	c #D0CECF",
"@.	c #D1CFD0",
"#.	c #CCCACB",
"$.	c #D6D4D5",
"%.	c #DDDDDD",
"&.	c #9E9E9E",
"*.	c #B0B0B0",
"=.	c #CBC9CA",
"-.	c #CECCCD",
";.	c #CDCBCC",
">.	c #B2B2B2",
",.	c #A8A8A8",
"'.	c #B0AEAF",
").	c #CFCDCE",
"!.	c #C3C1C2",
"~.	c #C8C6C7",
"{.	c #B6B6B6",
"].	c #A1A1A1",
"^.	c #DFDFDF",
"/.	c #D2D2D2",
"(.	c #949494",
"_.	c #C7C7C7",
":.	c #BEBEBE",
"<.	c #878787",
"[.	c #B3B3B3",
"}.	c #B5B5B5",
"|.	c #A2A2A2",
"1.	c #9C9C9C",
"2.	c #C4C4C4",
"3.	c #D8D8D8",
". . . . . . . + + @ # . $ $ $ . . . . @ @ @ @ ",
"% % % % % % & * = - ; % % & > > > > > % % % % ",
", , , , , , ' ) ! ~ { ! ] ^ / / / / , , , , , ",
"# # + ( _ : < [ } | _ | 1 ( 2 3 4 4 ( . . . . ",
"5 @ 5 6 7 8 9 5 @ _ _ 4 9 # 4 0 : $ @ # . # . ",
"@ @ 4 : a : 5 9 b # + [ 5 5 _ c d c 9 + 5 + 5 ",
"$ 5 $ 0 0 | b [ b e 3 c [ 3 e | f g # $ 5 $ 5 ",
"# 4 ( f h i e j 3 k l m c e e 7 + n o 5 $ 5 $ ",
". $ + p $ q q i r s t u v q 3 w [ x c @ . @ . ",
"# [ ( y c z 7 A B k C f D E F : q G + $ # $ # ",
"H + o G 3 8 0 I J # 0 ( K L M N o O o _ $ _ $ ",
"# $ + P 8 0 Q R S T U V W X a M Y Z . . ( . ( ",
"6 + $ f `  ...+.T @...#.+.$.Y %.&.a $ # 6 # 6 ",
"+ . c j *.O $.T =.=.=.-.;.;.< G >.: # @ $ @ $ ",
"c . + @ g ,.'.-.).!.#.=.~.U {.].^.( @ $ + $ + ",
"4 + 6 : $ /.>.(.y N a _.:.<.[.Y c ( $ + 4 + 4 ",
"4 @ 5 $ c . 3 p }.|.&.1.G 2.^.9 5 . @ # $ # $ ",
"( # ( _ $ $ . c b  .3.M o $ @ b 5 + $ 9 ( 9 ( ",
"$ $ $ [ $ 4 $ @ @ @ $ @ $ + $ _ ( . @ ( # ( # ",
"@ @ @ @ @ @ @ @ @ @ @ @ @ @ @ @ @ @ @ @ @ @ @ ",
"b b b b b b b c c c c c c c c ( ( ( ( ( ( ( ( "};
