/* XPM */
static char * max_pressed_xpm[] = {
"23 21 77 1",
" 	c None",
".	c #F2F2F2",
"+	c #EFEFEF",
"@	c #F1F1F1",
"#	c #F3F3F3",
"$	c #F0F0F0",
"%	c #F4F3F1",
"&	c #F7F6F4",
"*	c #F1F0EE",
"=	c #F0EFED",
"-	c #F5F4F2",
";	c #F6F5F3",
">	c #F3F2F0",
",	c #F1F3F2",
"'	c #EDEFEE",
")	c #E1E3E2",
"!	c #DADCDB",
"~	c #DCDEDD",
"{	c #DEE0DF",
"]	c #DBDDDC",
"^	c #E0E2E1",
"/	c #F0F2F1",
"(	c #EEEEEE",
"_	c #F8F8F8",
":	c #E9E9E9",
"<	c #D4D4D4",
"[	c #EDEDED",
"}	c #FFFFFF",
"|	c #FBFBFB",
"1	c #FDFDFD",
"2	c #D7D7D7",
"3	c #E4E4E4",
"4	c #F5F5F5",
"5	c #F4F4F4",
"6	c #F7F7F7",
"7	c #E2E2E2",
"8	c #D6D6D6",
"9	c #F6F6F6",
"0	c #D5D5D5",
"a	c #D9D9D9",
"b	c #EAEAEA",
"c	c #ECECEC",
"d	c #E8E8E8",
"e	c #DFDFDF",
"f	c #E7E7E7",
"g	c #E6E6E6",
"h	c #E5E5E5",
"i	c #B4B4B4",
"j	c #0E0E0E",
"k	c #989898",
"l	c #EBEBEB",
"m	c #DEDEDE",
"n	c #A3A3A3",
"o	c #1A1A1A",
"p	c #9A9A9A",
"q	c #212121",
"r	c #969696",
"s	c #E1E1E1",
"t	c #E3E3E3",
"u	c #9B9B9B",
"v	c #202020",
"w	c #FCFCFC",
"x	c #CDCDCD",
"y	c #191919",
"z	c #959595",
"A	c #DCDCDC",
"B	c #F9F9F9",
"C	c #888888",
"D	c #B8B8B8",
"E	c #C3C3C3",
"F	c #7E7E7E",
"G	c #ECEAEB",
"H	c #F3F1F2",
"I	c #EDEBEC",
"J	c #F0EEEF",
"K	c #DBDBDB",
"L	c #DDDDDD",
".......++@#.$$$....@@@@",
"%%%%%%&*=-;%%&>>>>>%%%%",
",,,,,,')!~{!]^////,,,,,",
"##+(_:<[}|_|1(2344(....",
"5@567895@__49#40:$@#.#.",
"@@4:a:59b#+[55_cac9+5+5",
"$5$aa|b[bd3c[3d|ae#$5$5",
"#4(afgdh3ijkcdd7+al5$5$",
".$+a$mmgnopqrm3s[ac@.@.",
"#[(act7uviwxyza:Aa+$#$#",
"B+la3aaCD#a(EFaalal_$_$",
"#$+aaaaGHaaaIJaaaa..(.(",
"6+$aaaaaaaaaaaaKaa$#6#6",
"+.chaaaaaaaaaaaaa:#@$@$",
"c.+@eaaaaaaaaaaaL(@$+$+",
"4+6:$aaaaaaaaaaac($+4+4",
"4@5$c.3aaaaaaaL95.@#$#$",
"(#(_$$.cbaaal$@b5+$9(9(",
"$$$[$4$@@@$@$+$_(.@(#(#",
"@@@@@@@@@@@@@@@@@@@@@@@",
"bbbbbbbcccccccc(((((((("};
