/* XPM */
static char * menub_xpm[] = {
"39 30 132 2",
"  	c None",
". 	c #AEAEAE",
"+ 	c #B4B4B4",
"@ 	c #DBDDE0",
"# 	c #DCDEE0",
"$ 	c #DCDDE0",
"% 	c #DADCDE",
"& 	c #DBDDDE",
"* 	c #DBDDDF",
"= 	c #D8DADD",
"- 	c #D9DADD",
"; 	c #D9DBDE",
"> 	c #D8DADE",
", 	c #D8DBDE",
"' 	c #D6D8DB",
") 	c #D7D9DC",
"! 	c #D6D9DC",
"~ 	c #D7D9DB",
"{ 	c #D7D8DC",
"] 	c #D5D7DA",
"^ 	c #D5D8DB",
"/ 	c #D6D8DA",
"( 	c #D6D9DB",
"_ 	c #D6D8DC",
": 	c #D4D6D9",
"< 	c #D3D5D9",
"[ 	c #D4D6D8",
"} 	c #D4D6DA",
"| 	c #D5D6D9",
"1 	c #D4D7D9",
"2 	c #D5D6DA",
"3 	c #D5D7D9",
"4 	c #D3D5D7",
"5 	c #D3D5D8",
"6 	c #D4D5D8",
"7 	c #D3D6D9",
"8 	c #D4D5D9",
"9 	c #D2D3D6",
"0 	c #D1D3D7",
"a 	c #D1D3D6",
"b 	c #D2D4D6",
"c 	c #D1D4D7",
"d 	c #D2D3D7",
"e 	c #D2D4D7",
"f 	c #D3D4D7",
"g 	c #D2D5D7",
"h 	c #D2D4D8",
"i 	c #CFD1D6",
"j 	c #D0D2D5",
"k 	c #D0D2D6",
"l 	c #D1D2D6",
"m 	c #D2D3D8",
"n 	c #CFD1D3",
"o 	c #CFD1D4",
"p 	c #D0D1D4",
"q 	c #D0D2D4",
"r 	c #D1D2D5",
"s 	c #D0D3D5",
"t 	c #D1D3D5",
"u 	c #CDCFD2",
"v 	c #CECFD3",
"w 	c #CDD0D3",
"x 	c #CECFD4",
"y 	c #CED0D3",
"z 	c #CFD0D4",
"A 	c #CED0D4",
"B 	c #CFD0D5",
"C 	c #CFD1D5",
"D 	c #CFD2D5",
"E 	c #CCCED2",
"F 	c #CDCED2",
"G 	c #CCCFD3",
"H 	c #CDCED3",
"I 	c #CDCFD3",
"J 	c #CED1D4",
"K 	c #CBCDD1",
"L 	c #CCCDD1",
"M 	c #CBCED1",
"N 	c #CCCDD2",
"O 	c #CCCED1",
"P 	c #CCCFD2",
"Q 	c #CACCD0",
"R 	c #CBCDD0",
"S 	c #CACDD1",
"T 	c #CBCED2",
"U 	c #C9CCD0",
"V 	c #C9CDD1",
"W 	c #CACCD1",
"X 	c #CACED1",
"Y 	c #CBCDD2",
"Z 	c #CBCFD2",
"` 	c #C8CACE",
" .	c #C9CBCF",
"..	c #C9CBD0",
"+.	c #CACCCF",
"@.	c #CACDD0",
"#.	c #CBCCD1",
"$.	c #C8CACD",
"%.	c #C7C9CE",
"&.	c #C8C9CD",
"*.	c #C8CACF",
"=.	c #C9CACE",
"-.	c #C9CBCE",
";.	c #C8CBCF",
">.	c #C6C8CB",
",.	c #C6C8CC",
"'.	c #C6C9CD",
").	c #C7C9CC",
"!.	c #C7C9CD",
"~.	c #C7CACD",
"{.	c #C4C7CB",
"].	c #C5C8CC",
"^.	c #C5C8CB",
"/.	c #C5C9CD",
"(.	c #C6C9CC",
"_.	c #C6C9CE",
":.	c #C3C6CA",
"<.	c #C4C7CA",
"[.	c #C4C7CC",
"}.	c #C5C7CB",
"|.	c #C4C8CC",
"1.	c #C2C5C9",
"2.	c #C4C6CA",
"3.	c #C3C6CB",
"4.	c #C2C4C8",
"5.	c #C3C5C9",
"6.	c #C4C6C9",
"7.	c #C1C4C8",
"8.	c #BEC1C5",
"9.	c #C0C3C7",
"0.	c #757575",
"a.	c #818182",
". + . . . . . . . . . . . . . . . . . . . . . . . . . . . . . . . . . . . + . ",
". @ @ @ @ @ @ @ @ @ @ @ @ @ @ # $ @ @ @ @ # @ @ @ @ @ @ @ @ @ @ @ @ @ @ @ @ . ",
". % % % % % % % % % % % % % & * % % % % % % % % % % % % % % % % % % % % % % . ",
". = = = = = = = = - ; > = % % % - = = = = = = - = , ; - = = = = = = = = = = . ",
". ' ' ' ' ) ! ' ' ~ ) ) { = , ; ~ ' ! ) ' ' ' ~ { ) ) ~ ' ' ' ' ' ' ) ! ' ' . ",
". % % % % % % % % % % % % % % & * % % % % % % % % % % % % % % % % % % % % % . ",
". = = = = = = = = = - ; > = % % % - = = = = = = - = , ; - = = = = = = = = = . ",
". ' ' ' ' ' ) ! ' ' ~ ) ) { = , ; ~ ' ! ) ' ' ' ~ { ) ) ~ ' ' ' ' ' ' ) ! ' . ",
". ] ] ' ^ ] / ' ^ ^ ' ' ' ( { ) ) ' ^ ' / ] ^ ' _ ( ' ' ' ^ ] ] ' ^ ] / ' ^ . ",
". : < [ : : } : | | 1 } 2 3 ( ' ' 1 | : : : : [ ] 3 2 } 1 | : < [ : : } : | . ",
". 4 5 6 < 5 [ 7 8 8 [ : : : 3 2 } [ 8 7 [ 5 < 6 } : : : [ 8 4 5 6 < 5 [ 7 8 . ",
". 9 0 a b c d e f f g h 4 4 : : : g f e d c b a 5 4 4 h g f 9 0 a b c d e f . ",
". i j k k k l a 0 0 0 a 0 c 4 4 h 0 0 a l k k k m c 0 a 0 0 i j k k k l a 0 . ",
". n o o o p q j j j r s s a c 0 a r j j q p o o t a s s r j n o o o p q j j . ",
". u v w x y z A B B o o C p a s s o B A z y x w D p C o o B u v w x y z A B . ",
". E F G H u v I x x y A A z p C o y x I v u H G J z A A y x E F G H u v I x . ",
". K L M N O F P H H u I w x z A A u H P F O N M y x w I u H K L M N O F P H . ",
". Q Q R S K K O T T E O P P x w I E T O K K S R I P P O E T Q Q R S K K O T . ",
". U U U Q V W S M M X Y M E P P O X M S W V Q U Z E M Y X M U U U Q V W S M . ",
". `  . ... .+.U Q Q Q R @.#.E M Y Q Q U +. ... .K #.@.R Q Q `  . ... .+.U Q . ",
". $.%.&.` ` *.=.-.-.;. ...+.#.@.R ;.-.=.` ` ` &.+.+... .;.-.$.%.&.` ` *.=.-.. ",
". >.,.,.'.,.).!.~.~.%.&.` ` +... .%.~.!.).,.'.,.` ` ` &.%.~.>.,.,.'.,.).!.~.. ",
". {.].{.^.].,./.].].(.'.!._.` ` &.(.]./.,.].^.{.!._.!.'.(.].{.].{.^.].,./.].. ",
". :.:.:.:.{.:.<.{.{.{.].[.}._.!.'.{.{.<.:.{.:.:.].}.|.].{.{.:.:.:.:.{.:.<.{.. ",
". 1.1.1.1.1.1.1.1.1.:.1.1.:.}.|.].}.{.<.2.3.{.2.:.:.1.1.:.1.1.1.1.1.1.1.1.1.. ",
". 4.4.4.4.4.4.4.4.4.4.4.4.4.4.5.5.6.5.5.5.4.5.5.4.4.4.4.4.4.4.4.4.4.4.4.4.4.. ",
". 7.7.7.7.7.7.7.7.7.7.7.7.7.7.7.7.7.7.7.7.7.7.7.7.7.7.7.7.7.7.7.7.7.7.7.7.7.. ",
". 8.9.9.9.9.9.9.9.9.9.9.9.9.9.9.9.9.9.9.9.9.9.9.9.9.9.9.9.9.8.9.9.9.9.9.9.9.. ",
". 0.0.0.0.0.0.0.0.0.0.0.0.0.0.0.0.0.0.0.0.0.0.0.0.0.0.0.0.0.0.0.0.0.0.0.0.a.. ",
". + . . . . . . . . . . . . . . . . . . . . . . . . . . . . . . . . . . . + . "};
