/* XPM */
static char * min_xpm[] = {
"23 21 134 2",
"  	c None",
". 	c #F2F2F2",
"+ 	c #EEEEEE",
"@ 	c #F1F1F1",
"# 	c #F3F3F3",
"$ 	c #F4F4F4",
"% 	c #F0F0F0",
"& 	c #F4F3F1",
"* 	c #F5F4F2",
"= 	c #F2F1EF",
"- 	c #F1F0EE",
"; 	c #F0EFED",
"> 	c #F3F2F0",
", 	c #F1F3F2",
"' 	c #F2F4F3",
") 	c #EBEDEC",
"! 	c #E1E3E2",
"~ 	c #DADCDB",
"{ 	c #DBDDDC",
"] 	c #DEE0DF",
"^ 	c #DCDEDD",
"/ 	c #D8DAD9",
"( 	c #E7E9E8",
"_ 	c #ECEEED",
": 	c #F0F2F1",
"< 	c #EAEAEA",
"[ 	c #D8D8D8",
"} 	c #ECECEC",
"| 	c #F8F8F8",
"1 	c #FEFEFE",
"2 	c #FDFDFD",
"3 	c #D5D5D5",
"4 	c #EBEBEB",
"5 	c #F5F5F5",
"6 	c #E6E6E6",
"7 	c #D3D3D3",
"8 	c #FAFAFA",
"9 	c #F6F6F6",
"0 	c #F7F7F7",
"a 	c #CECECE",
"b 	c #EDEDED",
"c 	c #FBFBFB",
"d 	c #D2D2D2",
"e 	c #EFEFEF",
"f 	c #E9E9E9",
"g 	c #DBDBDB",
"h 	c #CDCDCD",
"i 	c #DCDCDC",
"j 	c #CCCCCC",
"k 	c #E8E8E8",
"l 	c #EAE8E9",
"m 	c #EBE9EA",
"n 	c #D0CECF",
"o 	c #E9E7E8",
"p 	c #E1DFE0",
"q 	c #ECEAEB",
"r 	c #D4D4D4",
"s 	c #E2E2E2",
"t 	c #C5C5C5",
"u 	c #BEBEBE",
"v 	c #E3E1E2",
"w 	c #DFDDDE",
"x 	c #6F6D6E",
"y 	c #4F4D4E",
"z 	c #DEDCDD",
"A 	c #DDDBDC",
"B 	c #5A5859",
"C 	c #565656",
"D 	c #E1E1E1",
"E 	c #C2C2C2",
"F 	c #B9B9B9",
"G 	c #E5E3E4",
"H 	c #DBD9DA",
"I 	c #4A4849",
"J 	c #545253",
"K 	c #D6D4D5",
"L 	c #605E5F",
"M 	c #3B393A",
"N 	c #E0E0E0",
"O 	c #DADADA",
"P 	c #E5E5E5",
"Q 	c #BABABA",
"R 	c #BFBFBF",
"S 	c #E3E3E3",
"T 	c #D7D5D6",
"U 	c #E8E6E7",
"V 	c #F4F2F3",
"W 	c #444243",
"X 	c #2D2B2C",
"Y 	c #3E3C3D",
"Z 	c #EEECED",
"` 	c #D9D9D9",
" .	c #C7C7C7",
"..	c #D0D0D0",
"+.	c #D5D3D4",
"@.	c #DAD8D9",
"#.	c #D1CFD0",
"$.	c #F5F3F4",
"%.	c #D1D1D1",
"&.	c #A6A6A6",
"*.	c #D2D0D1",
"=.	c #D4D2D3",
"-.	c #FFFEFF",
";.	c #DCDADB",
">.	c #CACACA",
",.	c #9A9A9A",
"'.	c #B5B5B5",
").	c #C0BEBF",
"!.	c #CBC9CA",
"~.	c #D3D1D2",
"{.	c #CAC8C9",
"].	c #C9C7C8",
"^.	c #CECCCD",
"/.	c #CBCBCB",
"(.	c #B6B6B6",
"_.	c #A4A2A3",
":.	c #BBB9BA",
"<.	c #C7C5C6",
"[.	c #CCCACB",
"}.	c #C2C0C1",
"|.	c #ADADAD",
"1.	c #ABABAB",
"2.	c #8B8B8B",
"3.	c #BBBBBB",
"4.	c #858585",
"5.	c #FCFCFC",
"6.	c #C9C9C9",
"7.	c #9C9C9C",
"8.	c #A3A3A3",
"9.	c #B4B4B4",
"0.	c #C6C6C6",
"a.	c #D7D7D7",
"b.	c #F9F9F9",
"c.	c #E7E7E7",
". . . . . . + @ # # # # $ # . $ $ . % @ . . . ",
"& & & & & & * & = - = * & = ; > * & > > & > & ",
", , , , , , ' ) ! ~ { ] ^ / ( _ : : : , , : , ",
"$ @ % . % $ < [ } | 1 2 | 1 < 3 4 . @ . . . @ ",
". 5 . $ $ 6 7 # | 8 @ | 9 0 9 0 a b % % c 4 % ",
"@ 0 % @ } d # e 5 f e % 4 # . @ } 7 < 5 f 9 # ",
"# $ % e g 7 + 4 # 4 + 4 e f } % 5 h i e # # $ ",
"9 % $ @ j k l m n o m l p q r s s + t # # @ @ ",
"9 b $ + u @ v w x y z A o B C } D + E } e # . ",
"$ % . f F < G A H I J K L M N g O P Q + . 5 . ",
"% $ $ f R S T H U V W X Y Z S O ` s R k @ . b ",
"5 b $ 4  ...+.@.#.z $.I o v [ %.7 [ u $ 5 @ @ ",
". @ 0 @ j &.T K *.#.=.-.;.#.>.[ g ,.d 4 . % @ ",
"b $ . . k '.).#.!.#.~.{.].^./.%.(.u 6 . $ 5 . ",
"e 9 + 4 $ g _.:.^.<.[.}.].{.[ |.1.3 < 0 4 < # ",
"+ . # % e 4 r '.2.R j 3 /.3.4.'.d . 5 6 5.. @ ",
". } # 0 + $ # ` 6.Q 7.,.8.9.0.N b . 4 5 b 5 + ",
"0 e + % } $ $ + b P a.` g f e e e 0 b.k . % % ",
"+ $ # % @ # } 0 e @ # % b @ b 5 . f # 9 e @ # ",
"@ @ @ @ @ @ @ @ @ @ @ @ @ @ @ @ @ @ @ @ @ @ @ ",
"c.c.c.c.c.c.f f f f f f f f < < < < < < < < < "};
