/* XPM */
static char * min_pressed_xpm[] = {
"23 21 89 1",
" 	c None",
".	c #F2F2F2",
"+	c #EEEEEE",
"@	c #F1F1F1",
"#	c #F3F3F3",
"$	c #F4F4F4",
"%	c #F0F0F0",
"&	c #F4F3F1",
"*	c #F5F4F2",
"=	c #F2F1EF",
"-	c #F1F0EE",
";	c #F0EFED",
">	c #F3F2F0",
",	c #F1F3F2",
"'	c #F2F4F3",
")	c #EBEDEC",
"!	c #E1E3E2",
"~	c #DADCDB",
"{	c #DBDDDC",
"]	c #DEE0DF",
"^	c #DCDEDD",
"/	c #D8DAD9",
"(	c #E7E9E8",
"_	c #ECEEED",
":	c #F0F2F1",
"<	c #EAEAEA",
"[	c #D8D8D8",
"}	c #ECECEC",
"|	c #F8F8F8",
"1	c #FEFEFE",
"2	c #FDFDFD",
"3	c #D5D5D5",
"4	c #EBEBEB",
"5	c #F5F5F5",
"6	c #E6E6E6",
"7	c #D3D3D3",
"8	c #FAFAFA",
"9	c #F6F6F6",
"0	c #F7F7F7",
"a	c #CECECE",
"b	c #EDEDED",
"c	c #FBFBFB",
"d	c #D9D9D9",
"e	c #EFEFEF",
"f	c #E9E9E9",
"g	c #DADADA",
"h	c #DBDBDB",
"i	c #E8E8E8",
"j	c #EAE8E9",
"k	c #EBE9EA",
"l	c #D0CECF",
"m	c #E9E7E8",
"n	c #E1DFE0",
"o	c #ECEAEB",
"p	c #D4D4D4",
"q	c #E2E2E2",
"r	c #E3E1E2",
"s	c #DFDDDE",
"t	c #6F6D6E",
"u	c #4F4D4E",
"v	c #DEDCDD",
"w	c #DDDBDC",
"x	c #5A5859",
"y	c #565656",
"z	c #E1E1E1",
"A	c #E5E3E4",
"B	c #DCDADB",
"C	c #DAD9D9",
"D	c #4A4849",
"E	c #545253",
"F	c #D6D4D5",
"G	c #605E5F",
"H	c #3B393A",
"I	c #E0E0E0",
"J	c #E5E5E5",
"K	c #E3E3E3",
"L	c #E8E6E7",
"M	c #F4F2F3",
"N	c #444243",
"O	c #2D2B2C",
"P	c #3E3C3D",
"Q	c #EEECED",
"R	c #D9D8D9",
"S	c #F5F3F4",
"T	c #FFFEFF",
"U	c #DBD9DA",
"V	c #FCFCFC",
"W	c #F9F9F9",
"X	c #E7E7E7",
"......+@####$#.$$.%@...",
"&&&&&&*&=-=*&=;>*&>>&>&",
",,,,,,')!~{]^/(_:::,,:,",
"$@%.%$<[}|12|1<34.@...@",
".5.$$67#|8@|9090ab%%c4%",
"@0%@}d#e5fe%4#.@}d<5f9#",
"#$%egd+4#4+4ef}%5dhe##$",
"9%$@dijklmkjnopqq+d##@@",
"9b$+d@rstuvwmxy}z+d}e#.",
"$%.fd<ABCDEFGHIgdJd+.5.",
"%$$fdKdCLMNOPQKddqdi@.b",
"5b$4dddRdwSDmr[dd[d$5@@",
".@0@dddddddTUdd[gdd4.%@",
"b$..iddddddddddddd6.$5.",
"e9+4$gdddddddd[ddd<04<#",
"+.#%e4ddddddddddd.56V.@",
".}#0+$#ddddddddIb.45b5+",
"0e+%}$$+bJddgfeee0Wi.%%",
"+$#%@#}0e@#%b@b5.f#9e@#",
"@@@@@@@@@@@@@@@@@@@@@@@",
"XXXXXXffffffff<<<<<<<<<"};
