/* XPM */
static char * close_pressed_xpm[] = {
"20 20 40 1",
" 	c None",
".	c #939393",
"+	c #FFFFFF",
"@	c #E3E3E3",
"#	c #E0E0E0",
"$	c #E2E2E2",
"%	c #DFDFDF",
"&	c #E1E1E1",
"*	c #DEDEDE",
"=	c #DDDDDD",
"-	c #DCDCDC",
";	c #D4D4D4",
">	c #747272",
",	c #D5D5D5",
"'	c #DBDBDB",
")	c #D6D6D6",
"!	c #DADADA",
"~	c #E7E7E7",
"{	c #E8E8E8",
"]	c #D9D9D9",
"^	c #ECECEC",
"/	c #8F8E8E",
"(	c #B5B5B5",
"_	c #EEEEEE",
":	c #D8D8D8",
"<	c #AFAFAF",
"[	c #D7D7D7",
"}	c #8C8A8A",
"|	c #939292",
"1	c #EDEDED",
"2	c #EAEAEA",
"3	c #CACACA",
"4	c #E5E5E5",
"5	c #A1A0A0",
"6	c #E4E4E4",
"7	c #F2F2F2",
"8	c #D3D3D3",
"9	c #D2D2D2",
"0	c #D1D1D1",
"a	c #D0D0D0",
"....................",
"++++++++++++++++++++",
"@#############@@@@@@",
"$%%%%%%%%%%%%%$$$$$$",
"&*************&&&&&&",
"#=============######",
"%---;>,--;>;--%%%%%%",
"*'''>>>);>>>''******",
"=!!!~>>>>>>{!!======",
"-]]]~^/>>(_~]]------",
"'::::'>>><]:::''''''",
"![[[[>>>>}>[[[!!!!!!",
"])))>>|_1>>>))]]]]]]",
":,,,23_44_52,,::::::",
"[;;;676;;676;;[[[[[[",
")8888888888888))))))",
",9999999999999,,,,,,",
";0000000000000;;;;;;",
"8aaaaaaaaaaaaa888888",
"99999999999999999999"};
