/* XPM */
static char * close_xpm[] = {
"20 20 52 1",
" 	c None",
".	c #939393",
"+	c #FFFFFF",
"@	c #E3E3E3",
"#	c #E2E2E2",
"$	c #E1E1E1",
"%	c #E0E0E0",
"&	c #DFDFDF",
"*	c #D4D4D4",
"=	c #9E9E9E",
"-	c #D5D5D5",
";	c #DCDCDC",
">	c #DEDEDE",
",	c #A0A0A0",
"'	c #989898",
")	c #D6D6D6",
"!	c #969696",
"~	c #DDDDDD",
"{	c #E7E7E7",
"]	c #ACACAC",
"^	c #9D9D9D",
"/	c #9C9C9C",
"(	c #ADADAD",
"_	c #E8E8E8",
":	c #ECECEC",
"<	c #B2B2B2",
"[	c #A2A2A2",
"}	c #A3A3A3",
"|	c #B5B5B5",
"1	c #EEEEEE",
"2	c #DBDBDB",
"3	c #D8D8D8",
"4	c #B8B8B8",
"5	c #B4B4B4",
"6	c #D9D9D9",
"7	c #DADADA",
"8	c #D7D7D7",
"9	c #AEAEAE",
"0	c #B0B0B0",
"a	c #BEBEBE",
"b	c #B9B9B9",
"c	c #B7B7B7",
"d	c #C2C2C2",
"e	c #EDEDED",
"f	c #C0C0C0",
"g	c #EAEAEA",
"h	c #CACACA",
"i	c #E5E5E5",
"j	c #E4E4E4",
"k	c #F2F2F2",
"l	c #D3D3D3",
"m	c #D2D2D2",
"....................",
"++++++++++++++++++++",
"@@@@@@@@@@@@@@@@@@@@",
"####################",
"$$$$$$$$$$$$$$$$$$$$",
"%%%%%%%%%%%%%%%%%%%%",
"&&&&*=-;;*=*&&&&&&&&",
">>>>,.')*!.,>>>>>>>>",
"~~~~{]^=/^(_~~~~~~~~",
";;;;{:<[}|1{;;;;;;;;",
"2222324]]56322222222",
"7777890aa0(877777777",
"6666bcd1efcb66666666",
"3333gh1ii1hg33333333",
"8888jkj**jkj88888888",
"))))))))))))))))))))",
"--------------------",
"********************",
"llllllllllllllllllll",
"mmmmmmmmmmmmmmmmmmmm"};
