/* XPM */
static char * max_xpm[] = {
"20 20 27 1",
" 	c None",
".	c #939393",
"+	c #FFFFFF",
"@	c #E3E3E3",
"#	c #E2E2E2",
"$	c #E1E1E1",
"%	c #E0E0E0",
"&	c #DFDFDF",
"*	c #969696",
"=	c #DEDEDE",
"-	c #9F9F9F",
";	c #DDDDDD",
">	c #ACACAC",
",	c #DCDCDC",
"'	c #DBDBDB",
")	c #DADADA",
"!	c #ECECEC",
"~	c #D9D9D9",
"{	c #D8D8D8",
"]	c #D7D7D7",
"^	c #EEEFEF",
"/	c #EFEFEF",
"(	c #D6D6D6",
"_	c #D5D5D5",
":	c #D4D4D4",
"<	c #D3D3D3",
"[	c #D2D2D2",
"....................",
"++++++++++++++++++++",
"@@@@@@@@@@@@@@@@@@@@",
"####################",
"$$$$$$$$$$$$$$$$$$$$",
"%%%%%%%%%%%%%%%%%%%%",
"&&&&&&&&&**&&&&&&&&&",
"=========--=========",
";;;;;;;;;>>;;;;;;;;;",
",,,,,,***>>***,,,,,,",
"''''''>>>>>>>>''''''",
"))))))!!!>>!!!))))))",
"~~~~~~~~~>>~~~~~~~~~",
"{{{{{{{{{>>{{{{{{{{{",
"]]]]]]]]]^/]]]]]]]]]",
"((((((((((((((((((((",
"____________________",
"::::::::::::::::::::",
"<<<<<<<<<<<<<<<<<<<<",
"[[[[[[[[[[[[[[[[[[[["};
