/* XPM */
static char * max_pressed_xpm[] = {
"20 20 26 1",
" 	c None",
".	c #939393",
"+	c #FFFFFF",
"@	c #E3E3E3",
"#	c #E0E0E0",
"$	c #E2E2E2",
"%	c #DFDFDF",
"&	c #E1E1E1",
"*	c #DEDEDE",
"=	c #DDDDDD",
"-	c #DCDCDC",
";	c #DBDBDB",
">	c #747272",
",	c #DADADA",
"'	c #D9D9D9",
")	c #D8D8D8",
"!	c #D7D7D7",
"~	c #ECECEC",
"{	c #D6D6D6",
"]	c #D5D5D5",
"^	c #D4D4D4",
"/	c #EEEFEF",
"(	c #EFEFEF",
"_	c #D3D3D3",
":	c #D2D2D2",
"<	c #D1D1D1",
"....................",
"++++++++++++++++++++",
"@@@###############@@",
"$$$%%%%%%%%%%%%%%%$$",
"&&&***************&&",
"###===============##",
"%%%------..-------%%",
"***;;;;;;>>;;;;;;;**",
"===,,,,,,>>,,,,,,,==",
"---'''...>>...''''--",
";;;)))>>>>>>>>))));;",
",,,!!!~~~>>~~~!!!!,,",
"'''{{{{{{>>{{{{{{{''",
")))]]]]]]>>]]]]]]]))",
"!!!^^^^^^/(^^^^^^^!!",
"{{{_______________{{",
"]]]:::::::::::::::]]",
"^^^<<<<<<<<<<<<<<<^^",
"____________________",
"::::::::::::::::::::"};
