/* XPM */
static char * max_unfocus_xpm[] = {
"16 15 7 1",
" 	c #2F2F2F",
".	c #565656",
"+	c #666666",
"@	c #5B5B5B",
"#	c #303030",
"$	c #535353",
"%	c #5C5C5C",
"                ",
"                ",
"                ",
"                ",
"                ",
"        .++@    ",
"      # #$++    ",
"      .## $+    ",
"      +.#  $    ",
"      ++$# #    ",
"      %++.#     ",
"                ",
"                ",
"                ",
"                "};
