/* XPM */
static char * min_unfocus_xpm[] = {
"16 15 2 1",
" 	c #2F2F2F",
".	c #666666",
"                ",
"                ",
"                ",
"                ",
"                ",
"                ",
"                ",
"      ......    ",
"      ......    ",
"                ",
"                ",
"                ",
"                ",
"                ",
"                "};
